<?xml version="1.0" standalone="no"?>
<!DOCTYPE svg PUBLIC "-//W3C//DTD SVG 1.1//EN" "http://www.w3.org/Graphics/SVG/1.1/DTD/svg11.dtd" >
<svg xmlns="http://www.w3.org/2000/svg">
<metadata></metadata>
<defs>
<font id="samsungimagination_modernbold" horiz-adv-x="1441" >
<font-face units-per-em="2048" ascent="1536" descent="-512" />
<missing-glyph horiz-adv-x="548" />
<glyph horiz-adv-x="2048" />
<glyph horiz-adv-x="2048" />
<glyph unicode="&#xd;" horiz-adv-x="2048" />
<glyph unicode=" "  horiz-adv-x="548" />
<glyph unicode="&#x09;" horiz-adv-x="548" />
<glyph unicode="&#xa0;" horiz-adv-x="548" />
<glyph unicode="!" horiz-adv-x="491" d="M119 90v21q0 56 30.5 91.5t96.5 35.5t96.5 -35.5t30.5 -91.5v-21q0 -56 -30.5 -91.5t-96.5 -35.5t-96.5 35.5t-30.5 91.5zM137 1360q0 110 109 110q108 0 108 -110l-8 -897q0 -48 -24 -79.5t-76 -31.5t-76.5 31.5t-24.5 79.5z" />
<glyph unicode="&#x22;" horiz-adv-x="655" d="M61 1073v346q0 133 123 133q152 0 117 -176l-61 -319q-15 -82 -90 -82q-39 0 -64 22.5t-25 75.5zM389 1073v346q0 133 123 133q152 0 117 -176l-62 -319q-15 -82 -90 -82q-88 0 -88 98z" />
<glyph unicode="#" d="M45 477q0 50 27.5 74t70.5 24h189l69 287h-168q-43 0 -70.5 23.5t-27.5 72.5q0 51 27 74t71 23h218l86 340q10 40 42.5 62t79.5 11q51 -11 67.5 -43.5t4.5 -76.5l-74 -293h297l82 340q10 42 40.5 63t80.5 10q51 -11 67.5 -43.5t4.5 -76.5l-72 -293h141q44 0 71.5 -23 t27.5 -74q0 -49 -27.5 -72.5t-71.5 -23.5h-188q-11 -45 -36 -138.5t-38 -148.5h172q43 0 71 -24t28 -74q0 -49 -27.5 -71.5t-71.5 -22.5h-219l-88 -344q-10 -42 -42 -64.5t-83 -9.5q-48 11 -64 44t-5 77l73 297h-293l-86 -344q-10 -42 -40 -63.5t-82 -10.5 q-53 13 -67.5 43.5t-2.5 77.5l72 297h-138q-44 0 -71 22.5t-27 71.5zM535 575h292l76 287h-293z" />
<glyph unicode="$" horiz-adv-x="1056" d="M86 315q0 97 98 97q50 0 73.5 -26.5t23.5 -70.5q0 -94 118 -94h35v436l-125 33q-57 15 -98.5 49t-64.5 79t-33.5 92.5t-10.5 97.5v53q0 157 78.5 241.5t253.5 90.5v145q0 96 94 96q93 0 93 -96v-145q303 -3 303 -281q0 -94 -95 -94q-98 0 -98 94q0 46 -29 70t-81 26v-389 l127 -33q223 -61 223 -323v-78q0 -341 -350 -352v-178q0 -99 -93 -99q-49 0 -71.5 28t-22.5 71v178h-35q-313 0 -313 282zM295 1008q0 -57 19.5 -84t68.5 -39l51 -13v334q-73 -9 -106 -44t-33 -101v-53zM621 221q86 3 120.5 43.5t34.5 120.5v78q0 56 -18 84.5t-60 38.5 l-77 18v-383z" />
<glyph unicode="%" horiz-adv-x="1591" d="M76 948v230q0 132 74 212t212 80h25q138 0 212.5 -80t74.5 -212v-230q0 -133 -74 -214t-213 -81h-25q-138 0 -212 81t-74 214zM264 948q0 -119 98 -119h25q98 0 98 119v230q0 116 -98 116h-25q-98 0 -98 -116v-230zM463 90l489 1319q13 35 47.5 53t77.5 4 q45 -16 58.5 -52t-2.5 -73l-492 -1318q-34 -90 -123 -60q-88 31 -55 127zM920 258v229q0 132 74 213.5t212 81.5h23q140 0 213.5 -81t73.5 -214v-229q0 -133 -73.5 -214t-213.5 -81h-23q-138 0 -212 81.5t-74 213.5zM1108 258q0 -119 98 -119h23q100 0 100 119v229 q0 119 -100 119h-23q-98 0 -98 -119v-229z" />
<glyph unicode="&#x26;" horiz-adv-x="1257" d="M86 377v45q0 263 207 340q-119 88 -119 266v49q0 181 103 277t303 96h127q44 0 75 -29t31 -80q0 -55 -30.5 -81.5t-75.5 -26.5h-127q-96 0 -138.5 -36.5t-42.5 -119.5v-49q0 -89 44.5 -140.5t136.5 -51.5h231v135q0 47 28 78.5t83 31.5q58 0 86 -31.5t28 -78.5v-135h113 q44 0 75 -28t31 -79q0 -55 -30 -80.5t-76 -25.5h-113v-529q0 -47 -28 -78.5t-86 -31.5h-430q-199 0 -302.5 104.5t-103.5 288.5zM311 377q0 -87 43.5 -131.5t137.5 -44.5h319v422h-319q-92 0 -136.5 -54.5t-44.5 -146.5v-45z" />
<glyph unicode="'" horiz-adv-x="327" d="M61 1073v346q0 133 123 133q152 0 117 -176l-61 -319q-15 -82 -90 -82q-39 0 -64 22.5t-25 75.5z" />
<glyph unicode="(" horiz-adv-x="663" d="M127 565v240q0 133 19.5 254t62 235.5t117 209.5t176.5 157q37 22 71 22q49 0 78 -45q19 -30 15 -58.5t-19.5 -49.5t-38.5 -37q-129 -81 -196.5 -268.5t-67.5 -419.5v-240q0 -232 67.5 -419.5t196.5 -268.5q23 -16 38.5 -37t19.5 -49.5t-15 -58.5q-29 -45 -78 -45 q-34 0 -71 22q-102 62 -176.5 157t-117 209.5t-62 235.5t-19.5 254z" />
<glyph unicode=")" horiz-adv-x="663" d="M-3 -209.5q4 28.5 19.5 49.5t38.5 37q129 81 196.5 268.5t67.5 419.5v240q0 232 -67.5 419.5t-196.5 268.5q-23 16 -38.5 37t-19.5 49.5t15 58.5q29 45 78 45q35 0 72 -22q102 -62 176.5 -157t117 -209.5t62 -235.5t19.5 -254v-240q0 -133 -19.5 -254t-62 -235.5 t-117 -209.5t-176.5 -157q-37 -22 -72 -22q-49 0 -78 45q-19 30 -15 58.5z" />
<glyph unicode="*" horiz-adv-x="864" d="M53 1118q13 41 38 61t53 19.5t59 -16.5l153 -82l-26 174q-8 54 16 87.5t86 33.5q64 0 88.5 -33t16.5 -88l-29 -174l156 80q104 51 145 -60q22 -60 -3.5 -94.5t-76.5 -42.5l-172 -29l121 -120q35 -35 35 -76q0 -42 -47 -80q-36 -27 -70 -27q-55 0 -86 60l-80 151l-78 -149 q-32 -62 -84 -62q-33 0 -69 27q-49 38 -49 82q0 42 34 76l123 122l-170 27q-54 8 -78.5 41.5t-5.5 91.5z" />
<glyph unicode="+" horiz-adv-x="1177" d="M55 575q0 54 29 79.5t78 25.5h321v342q0 49 26.5 77.5t80.5 28.5q102 0 102 -106v-342h324q106 0 106 -105q0 -104 -106 -104h-324v-344q0 -107 -104 -107q-54 0 -79.5 29t-25.5 78v344h-321q-107 0 -107 104z" />
<glyph unicode="," horiz-adv-x="368" d="M70 104q0 134 123 134q151 0 116 -177l-61 -319q-15 -82 -90 -82q-88 0 -88 98v346z" />
<glyph unicode="-" horiz-adv-x="710" d="M55 760q0 53 30.5 78.5t76.5 25.5h387q46 0 76 -25.5t30 -78.5t-30 -79t-76 -26h-387q-46 0 -76.5 26t-30.5 79z" />
<glyph unicode="." horiz-adv-x="368" d="M57 90v21q0 56 30.5 91.5t96.5 35.5t96.5 -35.5t30.5 -91.5v-21q0 -56 -30.5 -91.5t-96.5 -35.5t-96.5 35.5t-30.5 91.5z" />
<glyph unicode="/" horiz-adv-x="774" d="M20 27l539 1450q16 41 53 64.5t86 4.5q93 -35 54 -141l-539 -1450q-16 -43 -51.5 -66t-85.5 -4q-95 36 -56 142z" />
<glyph unicode="0" horiz-adv-x="1126" d="M82 494v446q0 248 115 389t331 141h72q216 0 330 -141t114 -389v-446q0 -248 -114 -389.5t-330 -141.5h-72q-216 0 -331 141.5t-115 389.5zM307 494q0 -150 55 -232t166 -82h72q111 0 165 81.5t54 232.5v446q0 313 -219 313h-72q-111 0 -166 -81.5t-55 -231.5v-446z" />
<glyph unicode="1" horiz-adv-x="1126" d="M129 1028q0 37 39 76q199 184 330 328q38 38 86 38h34q60 0 82.5 -30t22.5 -82v-1157h199q48 0 78 -27t30 -82t-30 -81.5t-78 -26.5h-664q-48 0 -78 26.5t-30 81.5t30 82t78 27h240v936q-84 -97 -187 -183q-43 -34 -78 -34q-37 0 -69 32q-35 35 -35 76z" />
<glyph unicode="2" horiz-adv-x="1126" d="M106 -16v344q0 146 66.5 255t185.5 162l351 156q102 47 102 178v8q0 86 -45.5 126t-144.5 40h-125q-63 0 -98.5 -26t-35.5 -80q0 -50 -27 -81.5t-85 -31.5t-85.5 31.5t-27.5 81.5q0 323 359 323h125q205 0 310 -98.5t105 -284.5v-8q0 -270 -235 -379l-377 -170 q-43 -20 -67.5 -69.5t-24.5 -114.5v-145h614q48 0 78.5 -27t30.5 -82t-30.5 -81.5t-78.5 -26.5h-840z" />
<glyph unicode="3" horiz-adv-x="1126" d="M55 287q0 50 27.5 81t85.5 31t85.5 -31t27.5 -81q0 -54 35.5 -80.5t97.5 -26.5h219q190 0 190 187v67q0 97 -44.5 153t-139.5 56h-209q-48 0 -78 26t-30 81t30 80.5t78 25.5h117q100 0 153.5 56.5t53.5 148.5v26q0 86 -45.5 126t-145.5 40h-108q-133 0 -133 -106 q0 -50 -27.5 -81.5t-85.5 -31.5t-85.5 31.5t-27.5 81.5q0 323 359 323h108q205 0 310.5 -98.5t105.5 -284.5v-26q0 -183 -131 -275q201 -77 201 -352v-67q0 -189 -106.5 -296.5t-309.5 -107.5h-219q-359 0 -359 324z" />
<glyph unicode="4" horiz-adv-x="1126" d="M39 498q0 44 14 77q185 429 262 846q9 50 46.5 72.5t91.5 9.5q48 -12 64 -50.5t9 -86.5q-66 -392 -223 -758h404v381q0 50 26 81.5t84 31.5t84.5 -31.5t26.5 -81.5v-381h88q48 0 78 -26.5t30 -81.5t-30 -82t-78 -27h-88v-315q0 -50 -26.5 -81.5t-84.5 -31.5t-84 31.5 t-26 81.5v315h-560q-48 0 -78 26t-30 81z" />
<glyph unicode="5" horiz-adv-x="1126" d="M86 287q0 50 27.5 81t85.5 31t85 -31t27 -81q0 -54 35.5 -80.5t97.5 -26.5h183q190 0 190 187v129q0 186 -190 186h-387q-48 0 -78.5 27t-30.5 82v550q0 55 30.5 82t78.5 27h628q48 0 78.5 -27t30.5 -82t-30.5 -81.5t-78.5 -26.5h-512v-334h271q203 0 309 -107t106 -296 v-129q0 -189 -106 -296.5t-309 -107.5h-183q-358 0 -358 324z" />
<glyph unicode="6" horiz-adv-x="1126" d="M102 367v303q0 259 100.5 453t338.5 337q38 23 71 23q57 0 93 -53q22 -33 19 -64.5t-19.5 -55t-42.5 -40.5q-143 -88 -218.5 -184t-99.5 -214h293q202 0 309 -112t107 -301v-103q0 -187 -106 -290t-310 -103h-119q-203 0 -309.5 107.5t-106.5 296.5zM328 367 q0 -187 190 -187h119q99 0 144.5 43t45.5 133v103q0 196 -190 196h-309v-288z" />
<glyph unicode="7" horiz-adv-x="1126" d="M53 1341q0 55 30.5 82t78.5 27h764q56 0 87 -24t31 -66q0 -36 -26 -78l-213 -342q-109 -176 -154 -328.5t-45 -361.5v-174q0 -50 -27 -81.5t-85 -31.5t-85.5 31.5t-27.5 81.5v174q0 247 51.5 423t185.5 384q7 11 115 176h-571q-48 0 -78.5 26.5t-30.5 81.5z" />
<glyph unicode="8" horiz-adv-x="1126" d="M66 367v88q0 121 48 209t136 131q-64 43 -88.5 104t-24.5 162v41q0 187 97 277.5t305 90.5h49q208 0 304.5 -90.5t96.5 -277.5v-41q0 -101 -24 -162t-88 -104q88 -43 136 -131t48 -209v-88q0 -189 -106.5 -296.5t-309.5 -107.5h-164q-203 0 -309 107.5t-106 296.5z M291 367q0 -187 190 -187h164q191 0 191 187v88q0 95 -47.5 152t-143.5 57h-164q-96 0 -143 -56.5t-47 -152.5v-88zM362 1061q0 -93 40.5 -138.5t136.5 -45.5h49q96 0 136 45.5t40 138.5v41q0 86 -38 118.5t-138 32.5h-49q-100 0 -138.5 -32.5t-38.5 -118.5v-41z" />
<glyph unicode="9" horiz-adv-x="1126" d="M74 975v102q0 187 105.5 290t309.5 103h119q203 0 309.5 -107.5t106.5 -295.5v-303q0 -260 -100 -454t-338 -337q-36 -22 -72 -22q-56 0 -92 53q-22 33 -19 64.5t19.5 55t42.5 40.5q139 86 214.5 183t100.5 214h-291q-201 0 -308 112.5t-107 301.5zM299 975 q0 -197 190 -197h310v289q0 186 -191 186h-119q-99 0 -144.5 -43t-45.5 -133v-102z" />
<glyph unicode=":" horiz-adv-x="446" d="M96 90v21q0 56 30.5 91.5t96.5 35.5t96.5 -35.5t30.5 -91.5v-21q0 -56 -30.5 -91.5t-96.5 -35.5t-96.5 35.5t-30.5 91.5zM96 848v20q0 56 30.5 91.5t96.5 35.5t96.5 -35.5t30.5 -91.5v-20q0 -56 -30.5 -91.5t-96.5 -35.5t-96.5 35.5t-30.5 91.5z" />
<glyph unicode=";" horiz-adv-x="446" d="M96 848v20q0 56 30.5 91.5t96.5 35.5t96.5 -35.5t30.5 -91.5v-20q0 -56 -30.5 -91.5t-96.5 -35.5t-96.5 35.5t-30.5 91.5zM106 104q0 134 123 134q152 0 117 -177l-61 -319q-15 -82 -90 -82q-39 0 -64 22.5t-25 75.5v346z" />
<glyph unicode="&#x3c;" horiz-adv-x="1024" d="M55 575q0 52 45 80l693 424q35 21 63 21q48 0 84 -56q25 -47 13.5 -83.5t-52.5 -61.5l-401 -246q-97 -58 -158 -78q65 -21 158 -77l401 -246q41 -25 52.5 -62t-13.5 -84q-35 -55 -84 -55q-28 0 -63 21l-693 422q-45 28 -45 81z" />
<glyph unicode="=" horiz-adv-x="1075" d="M66 371q0 104 106 104h731q107 0 107 -104q0 -54 -29 -79.5t-78 -25.5h-731q-106 0 -106 105zM66 780q0 105 106 105h731q49 0 78 -25.5t29 -79.5q0 -104 -107 -104h-731q-106 0 -106 104z" />
<glyph unicode="&#x3e;" horiz-adv-x="1024" d="M70.5 190q11.5 37 52.5 62l401 246q93 56 158 77q-61 20 -158 78l-401 246q-41 25 -52.5 61.5t13.5 83.5q36 56 84 56q28 0 63 -21l693 -422q45 -28 45 -82q0 -51 -45 -79l-693 -424q-35 -21 -63 -21q-49 0 -84 55q-25 47 -13.5 84z" />
<glyph unicode="?" horiz-adv-x="983" d="M53 1157q0 313 344 313h115q199 0 300 -94.5t101 -273.5v-29q0 -109 -57.5 -197.5t-185.5 -162.5l-43 -25q-44 -26 -70.5 -72.5t-26.5 -107.5v-45q0 -48 -25.5 -79.5t-80.5 -31.5t-81 32t-26 79v31q0 131 50 224.5t165 155.5l41 23q127 67 127 176v29q0 83 -44.5 123.5 t-139.5 40.5h-119q-58 0 -94.5 -28.5t-36.5 -80.5q0 -47 -25.5 -78.5t-80.5 -31.5t-81 31.5t-26 78.5zM297 90v21q0 56 30.5 91.5t96.5 35.5t96.5 -35.5t30.5 -91.5v-21q0 -56 -30.5 -91.5t-96.5 -35.5t-96.5 35.5t-30.5 91.5z" />
<glyph unicode="@" horiz-adv-x="1550" d="M143 223v658q0 127 48.5 228.5t149 163.5t237.5 62h399q137 0 237 -62t148.5 -163.5t48.5 -228.5v-504q0 -324 -381 -324h-260q-158 0 -236.5 69.5t-78.5 213.5v84q0 144 78.5 213t236.5 69h133v35q0 109 -131 109h-162q-40 0 -65 21.5t-25 64.5q0 45 25 66.5t65 21.5 h162q313 0 313 -283v-510q71 0 107.5 36t36.5 118v500q0 121 -65.5 200.5t-186.5 79.5h-399q-121 0 -186.5 -79.5t-65.5 -200.5v-658q0 -150 71.5 -235.5t220.5 -85.5h400q39 0 63.5 -21t24.5 -65q0 -45 -25 -66.5t-63 -21.5h-400q-235 0 -355 133.5t-120 361.5zM637 336 q0 -109 133 -109h133v301h-133q-133 0 -133 -112v-80z" />
<glyph unicode="A" horiz-adv-x="1091" d="M14 106l414 1283q25 81 113 81h10q88 0 113 -81l413 -1283q6 -20 6 -38q1 -23 -9 -45q-18 -39 -64 -54q-21 -8 -41 -8q-25 1 -48 13q-41 22 -55 65l-110 348h-420q-17 -58 -55.5 -174.5t-55.5 -173.5q-15 -43 -55 -65q-23 -12 -47 -13q-20 0 -41 8q-46 17 -64 55 q-10 21 -10 45q0 18 6 37zM397 592h297l-116 373q-21 68 -31 116h-2q-10 -48 -31 -116z" />
<glyph unicode="B" horiz-adv-x="1167" d="M139 94v1245q0 47 28.5 79t86.5 32h342q200 0 302.5 -96t102.5 -277v-49q0 -175 -124 -266q213 -79 213 -340v-45q0 -184 -103.5 -288.5t-302.5 -104.5h-430q-58 0 -86.5 31.5t-28.5 78.5zM365 201h319q94 0 137 44.5t43 131.5v45q0 92 -44 146.5t-136 54.5h-319v-422z M365 836h231q92 0 136 51.5t44 140.5v49q0 83 -42.5 119.5t-137.5 36.5h-231v-397z" />
<glyph unicode="C" horiz-adv-x="1155" d="M119 389v655q0 184 105.5 305t299.5 121h209q352 0 352 -321q0 -47 -28 -79t-86 -32q-54 0 -81 30.5t-30 78.5q-9 106 -127 106h-209q-92 0 -136 -57.5t-44 -151.5v-655q0 -94 44 -151.5t136 -57.5h209q119 0 127 107q11 108 111 108q58 0 86 -31.5t28 -78.5 q0 -164 -91.5 -243t-260.5 -79h-209q-194 0 -299.5 121t-105.5 305z" />
<glyph unicode="D" horiz-adv-x="1222" d="M139 94v1245q0 47 28.5 79t86.5 32h444q99 0 177 -33t127.5 -91.5t75.5 -135t26 -166.5v-530q0 -143 -56 -257.5t-168.5 -183.5t-263.5 -69h-362q-58 0 -86.5 31.5t-28.5 78.5zM365 201h251q127 0 195 81.5t68 211.5v530q0 94 -44.5 151.5t-136.5 57.5h-333v-1032z" />
<glyph unicode="E" horiz-adv-x="1073" d="M139 94v1245q0 47 28 79t83 32h659q44 0 75.5 -29t31.5 -80q0 -55 -30.5 -81.5t-76.5 -26.5h-544v-387h446q44 0 75.5 -29t31.5 -80q0 -55 -30.5 -81.5t-76.5 -26.5h-446v-428h544q44 0 75.5 -29t31.5 -80q0 -55 -30.5 -81.5t-76.5 -26.5h-659q-55 0 -83 31.5t-28 78.5z " />
<glyph unicode="F" horiz-adv-x="1044" d="M139 74v1265q0 47 28 79t83 32h659q44 0 75.5 -29t31.5 -80q0 -55 -30.5 -81.5t-76.5 -26.5h-544v-387h446q44 0 75.5 -29t31.5 -80q0 -55 -30.5 -81.5t-76.5 -26.5h-446v-555q0 -47 -28.5 -79t-84.5 -32t-84.5 32t-28.5 79z" />
<glyph unicode="G" horiz-adv-x="1204" d="M119 389v655q0 184 105.5 305t299.5 121h181q348 0 348 -317q0 -47 -28 -79t-83 -32q-57 0 -85 32t-28 79q0 100 -124 100h-181q-92 0 -136 -57.5t-44 -151.5v-655q0 -94 44 -151.5t136 -57.5h164q92 0 136 57.5t44 151.5v244h-245q-48 0 -79.5 26.5t-31.5 81.5 q0 52 32 80.5t79 28.5h356q58 0 86.5 -32t28.5 -79v-350q0 -184 -106 -305t-300 -121h-164q-194 0 -299.5 121t-105.5 305z" />
<glyph unicode="H" horiz-adv-x="1234" d="M139 74v1286q0 46 29.5 78t83.5 32q58 0 85.5 -31.5t27.5 -78.5v-494h505v494q0 47 28.5 78.5t84.5 31.5q54 0 83.5 -32t29.5 -78v-1286q0 -46 -29.5 -78.5t-83.5 -32.5q-57 0 -85 32t-28 79v575h-505v-575q0 -47 -28.5 -79t-84.5 -32q-54 0 -83.5 32.5t-29.5 78.5z" />
<glyph unicode="I" horiz-adv-x="860" d="M41 92q0 55 30.5 82t75.5 27h170v1032h-170q-45 0 -75.5 26.5t-30.5 81.5q0 51 31 80t75 29h566q44 0 75 -29t31 -80q0 -55 -30.5 -81.5t-75.5 -26.5h-170v-1032h170q45 0 75.5 -27t30.5 -82q0 -51 -31 -79.5t-75 -28.5h-566q-44 0 -75 28.5t-31 79.5z" />
<glyph unicode="J" horiz-adv-x="1075" d="M45 281q0 47 27.5 78.5t85.5 31.5q54 0 83 -32t29 -78q0 -101 127 -101h146q91 0 135.5 57.5t44.5 151.5v844h-229q-46 0 -76.5 26.5t-30.5 81.5q0 51 31.5 80t75.5 29h340q58 0 86 -32t28 -79v-950q0 -184 -105.5 -305t-299.5 -121h-146q-352 0 -352 318z" />
<glyph unicode="K" horiz-adv-x="1132" d="M139 74v1286q0 47 28.5 78.5t86.5 31.5q55 0 83 -31.5t28 -78.5v-559q15 22 53 65l477 557q40 47 92 47q44 0 74 -30q35 -30 35 -76q0 -41 -35 -82l-361 -416l400 -735q16 -25 16 -54q0 -13 -4 -27q-10 -46 -59 -73q-31 -14 -58 -14q-17 0 -33 6q-40 15 -61 56 q-61 114 -178.5 330.5t-177.5 330.5q-30 -36 -90 -101.5t-90 -101.5v-409q0 -47 -28 -79t-83 -32q-58 0 -86.5 32t-28.5 79z" />
<glyph unicode="L" horiz-adv-x="1030" d="M139 94v1266q0 47 28 78.5t83 31.5q58 0 86.5 -31.5t28.5 -78.5v-1159h544q45 0 76 -27t31 -82q0 -51 -31.5 -79.5t-75.5 -28.5h-659q-55 0 -83 31.5t-28 78.5z" />
<glyph unicode="M" horiz-adv-x="1429" d="M139 74v1286q0 47 27.5 78.5t83.5 31.5q38 0 62 -16t48 -61l306 -600q33 -63 49 -117q17 54 49 117l305 600q24 45 48 61t63 16q56 0 83 -31.5t27 -78.5v-1286q0 -47 -27 -79t-83 -32t-83.5 32t-27.5 79v721q0 67 8 141h-2l-262 -510q-28 -57 -98 -57q-71 0 -99 57 l-262 510h-2q8 -74 8 -141v-721q0 -47 -27 -79t-83 -32t-83.5 32t-27.5 79z" />
<glyph unicode="N" horiz-adv-x="1234" d="M139 74v1286q0 47 28.5 78.5t86.5 31.5q68 0 111 -77l516 -916h2q-9 83 -9 141v742q0 47 27 78.5t82 31.5q58 0 85.5 -31.5t27.5 -78.5v-1286q0 -47 -28.5 -79t-86.5 -32q-67 0 -111 78l-516 917h-2q8 -74 8 -141v-743q0 -47 -26.5 -79t-81.5 -32q-57 0 -85 32t-28 79z " />
<glyph unicode="O" horiz-adv-x="1212" d="M119 389v655q0 184 105.5 305t299.5 121h164q194 0 300 -121t106 -305v-655q0 -184 -106 -305t-300 -121h-164q-194 0 -299.5 121t-105.5 305zM344 389q0 -94 44 -151.5t136 -57.5h164q92 0 136 57.5t44 151.5v655q0 94 -44 151.5t-136 57.5h-164q-92 0 -136 -57.5 t-44 -151.5v-655z" />
<glyph unicode="P" horiz-adv-x="1146" d="M139 74v1265q0 47 28 79t83 32h418q201 0 305 -104.5t104 -288.5v-103q0 -185 -105.5 -299t-303.5 -114h-303v-467q0 -47 -28.5 -79t-84.5 -32t-84.5 32t-28.5 79zM365 758h303q93 0 138.5 52.5t45.5 143.5v103q0 178 -184 178h-303v-477z" />
<glyph unicode="Q" horiz-adv-x="1212" d="M119 389v655q0 184 105.5 305t299.5 121h164q194 0 300 -121t106 -305v-655q0 -103 -38.5 -193.5t-107.5 -148.5l137 -235q15 -27 17 -54q1 -4 1 -8q0 -23 -13 -46q-15 -28 -48 -48q-34 -15 -62 -15q-15 0 -29 5q-38 13 -62 55l-152 264q-16 -2 -49 -2h-164 q-194 0 -299.5 121t-105.5 305zM344 389q0 -94 44 -151.5t136 -57.5h164q92 0 136 57.5t44 151.5v655q0 94 -44 151.5t-136 57.5h-164q-92 0 -136 -57.5t-44 -151.5v-655z" />
<glyph unicode="R" horiz-adv-x="1153" d="M139 74v1265q0 47 28.5 79t84.5 32h401q199 0 302.5 -104.5t103.5 -288.5v-58q0 -109 -53 -204.5t-142 -151.5q22 -47 51 -115l162 -411q10 -21 10 -43q1 -19 -7 -38q-16 -42 -66 -63q-29 -9 -52 -9t-40 8q-35 18 -54 63l-206 538h-297v-499q0 -47 -28.5 -79t-84.5 -32 t-84.5 32t-28.5 79zM365 791h288q92 0 136.5 57t44.5 151v58q0 87 -43.5 131.5t-137.5 44.5h-288v-442z" />
<glyph unicode="S" horiz-adv-x="1097" d="M76 281q0 48 26.5 79t83.5 31q55 0 83 -31.5t28 -78.5q0 -53 34.5 -79t92.5 -26h192q187 0 187 180v72q0 56 -25.5 93.5t-66.5 51.5l-389 138q-126 44 -180 138t-54 214v35q0 181 102.5 276.5t303.5 95.5h129q348 0 348 -317q0 -48 -27 -79.5t-84 -31.5q-55 0 -82.5 32 t-27.5 79q0 52 -34.5 78t-92.5 26h-129q-97 0 -141 -38t-44 -121v-35q0 -104 101 -141l366 -131q246 -87 246 -363v-72q0 -184 -103.5 -288.5t-302.5 -104.5h-192q-348 0 -348 318z" />
<glyph unicode="T" horiz-adv-x="1019" d="M8 1341q0 51 31.5 80t75.5 29h790q44 0 75.5 -29t31.5 -80q0 -55 -30.5 -81.5t-76.5 -26.5h-282v-1159q0 -47 -28.5 -79t-84.5 -32t-84.5 32t-28.5 79v1159h-282q-46 0 -76.5 26.5t-30.5 81.5z" />
<glyph unicode="U" horiz-adv-x="1210" d="M127 389v971q0 46 29.5 78t83.5 32q57 0 84.5 -31.5t27.5 -78.5v-971q0 -94 44 -151.5t136 -57.5h146q92 0 136 57.5t44 151.5v971q0 46 29.5 78t83.5 32q57 0 84.5 -31.5t27.5 -78.5v-971q0 -184 -105.5 -305t-299.5 -121h-146q-194 0 -299.5 121t-105.5 305z" />
<glyph unicode="V" horiz-adv-x="1091" d="M14 1327q-6 19 -6 37q0 23 10 45q18 38 64 55q22 8 43 8q25 0 47 -12q40 -21 53 -67l289 -912q21 -68 31 -116h2q10 48 31 116l288 912q14 44 55 66q23 12 48 12q20 0 41 -7q46 -17 64 -55q10 -21 9 -44q0 -18 -6 -38l-413 -1282q-26 -82 -113 -82h-10q-87 0 -113 82z " />
<glyph unicode="W" horiz-adv-x="1497" d="M43 1341q-2 11 -2 22q0 32 18 60q24 38 74 45q10 1 20 1q38 0 65 -22q34 -28 42 -73l137 -805q23 -136 27 -188h2q17 97 45 182l172 527q12 35 36 58t60 23h19q35 0 60 -23t36 -58l172 -527q32 -98 47 -182q4 52 27 188l137 805q9 46 41 74q25 21 63 22q11 0 23 -2 q54 -9 76 -45q17 -27 16 -59q0 -11 -2 -23l-229 -1282q-19 -96 -103 -96h-37q-77 0 -104 84l-195 590q-24 82 -36 141h-2q-10 -49 -37 -141l-195 -590q-27 -84 -104 -84h-37q-84 0 -103 96z" />
<glyph unicode="X" horiz-adv-x="1036" d="M27 48q-3 14 -3 27q0 28 15 50l352 627l-315 557q-15 22 -15 50q0 13 3 27q10 44 57 68q34 16 61 16q14 0 28 -5q36 -14 62 -58l246 -446l246 446q26 44 62 58q13 5 28 5q27 0 61 -16q48 -24 58 -68q3 -14 3 -27q0 -28 -15 -50l-316 -557q60 -105 176.5 -314t175.5 -313 q15 -27 15 -55q0 -24 -14 -47q-15 -26 -46 -43q-28 -13 -55 -13q-17 0 -33 5q-42 14 -63 55l-283 514l-282 -514q-25 -44 -62 -58q-13 -5 -29 -5q-27 0 -61 16q-47 24 -57 68z" />
<glyph unicode="Y" horiz-adv-x="995" d="M6 1384q6 42 51 70q33 16 59 16q16 0 30 -6q38 -15 61 -55l231 -420q31 -53 60 -129q31 81 59 129l231 420q23 40 60 55q15 6 31 6q27 0 59 -16q45 -28 52 -70q2 -9 2 -19q0 -31 -19 -60l-363 -658v-573q0 -47 -28 -79t-84 -32t-84.5 32t-28.5 79v573l-362 658 q-19 29 -19 61q0 9 2 18z" />
<glyph unicode="Z" horiz-adv-x="1026" d="M33 78q0 39 20 72l635 1089q-42 -6 -86 -6h-409q-46 0 -76.5 26.5t-30.5 81.5q0 51 31.5 80t75.5 29h684q51 0 80.5 -23.5t29.5 -66.5q0 -36 -22 -76l-635 -1089q42 6 86 6h471q45 0 75.5 -27t30.5 -82q0 -51 -31 -79.5t-75 -28.5h-740q-51 0 -82.5 24.5t-31.5 69.5z" />
<glyph unicode="[" horiz-adv-x="808" d="M168 -197v1745q0 54 28.5 80.5t77.5 26.5h347q106 0 106 -105q0 -104 -106 -104h-236v-1540h236q106 0 106 -105q0 -104 -106 -104h-347q-49 0 -77.5 26t-28.5 80z" />
<glyph unicode="\" horiz-adv-x="774" d="M20 1405q-39 106 54 141q50 19 87 -3.5t52 -65.5l541 -1450q39 -107 -54 -142q-50 -19 -87 4t-52 66z" />
<glyph unicode="]" horiz-adv-x="808" d="M82 -199q0 105 106 105h236v1540h-236q-106 0 -106 104q0 105 106 105h347q49 0 77.5 -26.5t28.5 -80.5v-1745q0 -54 -28.5 -80t-77.5 -26h-347q-106 0 -106 104z" />
<glyph unicode="^" horiz-adv-x="1114" d="M33 690q0 31 20 64l422 692q28 45 82 45q52 0 80 -45l424 -692q20 -33 20 -64q0 -51 -55 -86q-87 -51 -145 41l-246 402q-62 103 -78 153q-16 -50 -78 -153l-246 -402q-25 -41 -61.5 -53.5t-83.5 12.5q-55 35 -55 86z" />
<glyph unicode="_" horiz-adv-x="890" d="M-16 -162q0 105 106 105h711q106 0 106 -105q0 -104 -106 -104h-711q-106 0 -106 104z" />
<glyph unicode="`" horiz-adv-x="819" d="M150 1479q29 65 88 65q43 0 90 -35l254 -184q56 -39 32 -94q-11 -27 -38.5 -36.5t-63.5 5.5l-305 137q-100 46 -57 142z" />
<glyph unicode="a" horiz-adv-x="1034" d="M98 276v158q0 145 86 218t240 73h270v23q0 65 -34.5 97t-92.5 32h-264q-48 0 -78 25t-30 77t30 77t78 25h264q158 0 251 -91t93 -240v-656q0 -47 -27.5 -78.5t-82.5 -31.5h-377q-154 0 -240 73t-86 219zM315 276q0 -40 27.5 -64t81.5 -24h270v332h-270q-54 0 -81.5 -24 t-27.5 -66v-154z" />
<glyph unicode="b" horiz-adv-x="1087" d="M135 94v1348q0 49 26.5 79.5t82.5 30.5t82 -30.5t26 -79.5v-361h232q195 0 294 -102.5t99 -286.5v-291q0 -187 -103 -302t-296 -115h-332q-56 0 -83.5 31.5t-27.5 78.5zM352 193h226q90 0 136 56.5t46 151.5v291q0 180 -176 180h-232v-679z" />
<glyph unicode="c" horiz-adv-x="1015" d="M111 383v330q0 182 100 285.5t295 103.5h98q162 0 252 -73.5t90 -219.5q0 -51 -26 -81t-82 -30t-82.5 30.5t-26.5 80.5q0 38 -34.5 61t-90.5 23h-98q-178 0 -178 -180v-330q0 -97 46 -154t138 -57h92q56 0 90.5 23t34.5 61q0 50 26.5 80.5t82.5 30.5t82 -30t26 -81 q0 -146 -90 -219.5t-252 -73.5h-92q-193 0 -297 116t-104 304z" />
<glyph unicode="d" horiz-adv-x="1087" d="M111 373v291q0 187 104 302t297 115h223v361q0 48 27 79t82 31t81.5 -31t26.5 -79v-1348q0 -47 -27.5 -78.5t-82.5 -31.5h-336q-195 0 -295 102.5t-100 286.5zM328 373q0 -180 178 -180h229v679h-223q-92 0 -138 -56.5t-46 -151.5v-291z" />
<glyph unicode="e" horiz-adv-x="1050" d="M111 401v312q0 182 99 285.5t294 103.5h63q195 0 294.5 -103.5t99.5 -285.5v-170q0 -52 -29.5 -79.5t-77.5 -27.5h-526v-35q0 -96 46 -154.5t136 -58.5h266q107 0 107 -102t-107 -102h-266q-193 0 -296 115t-103 302zM328 641h415v72q0 184 -176 184h-63 q-176 0 -176 -184v-72z" />
<glyph unicode="f" horiz-adv-x="768" d="M-27 977q0 54 30.5 79t76.5 25h117v15q0 213 103.5 334.5t299.5 121.5h143q107 0 107 -104q0 -56 -30 -80.5t-77 -24.5h-143q-186 0 -186 -247v-15h264q46 0 76 -25t30 -79q0 -55 -30 -80t-76 -25h-264v-798q0 -48 -26 -79.5t-83 -31.5t-82.5 31.5t-25.5 79.5v798h-117 q-46 0 -76.5 25.5t-30.5 79.5z" />
<glyph unicode="g" horiz-adv-x="1087" d="M111 373v291q0 187 103 302t296 115h332q56 0 83 -31.5t27 -78.5v-1084q0 -185 -104 -300t-297 -115h-229q-46 0 -76.5 25t-30.5 79q0 52 31 78.5t76 26.5h229q92 0 138 55.5t46 150.5v97h-231q-195 0 -294 102.5t-99 286.5zM328 373q0 -180 176 -180h231v679h-225 q-90 0 -136 -56.5t-46 -151.5v-291z" />
<glyph unicode="h" horiz-adv-x="1099" d="M135 74v1368q0 48 27 79t82 31q108 0 108 -110v-361h230q195 0 295 -102.5t100 -286.5v-618q0 -48 -26.5 -79.5t-82.5 -31.5q-57 0 -82.5 31.5t-25.5 79.5v618q0 180 -178 180h-230v-798q0 -48 -25.5 -79.5t-82.5 -31.5q-55 0 -82 32t-27 79z" />
<glyph unicode="i" horiz-adv-x="487" d="M106 1370q0 68 31.5 104.5t108.5 36.5q139 0 139 -141q0 -137 -139 -137q-77 0 -108.5 35t-31.5 102zM135 74v917q0 48 27 79.5t84 31.5q55 0 80.5 -31.5t25.5 -79.5v-917q0 -48 -26.5 -79.5t-83.5 -31.5q-55 0 -81 32t-26 79z" />
<glyph unicode="j" horiz-adv-x="495" d="M-252 -424q0 52 31 78.5t76 26.5h102q92 0 139 56t47 150v1104q0 48 27 79.5t84 31.5q55 0 80.5 -31.5t25.5 -79.5v-1104q0 -185 -105 -300t-298 -115h-102q-46 0 -76.5 25t-30.5 79zM115 1370q0 68 31 104.5t108 36.5q139 0 139 -141q0 -137 -139 -137q-77 0 -108 35 t-31 102z" />
<glyph unicode="k" horiz-adv-x="1011" d="M135 74v1368q0 47 27 78.5t82 31.5q57 0 82.5 -31t25.5 -79v-817q33 51 80 98l330 344q35 35 82 35q40 0 67 -31q33 -38 33 -70q0 -39 -37 -79l-243 -246l301 -547q20 -34 20 -63q0 -51 -63 -86q-31 -17 -57 -17q-53 0 -89 66l-262 491l-162 -166v-280q0 -48 -25.5 -79.5 t-82.5 -31.5q-55 0 -82 32t-27 79z" />
<glyph unicode="l" horiz-adv-x="487" d="M135 74v1368q0 48 27 79t84 31q55 0 80.5 -31.5t25.5 -78.5v-1368q0 -48 -26.5 -79.5t-83.5 -31.5q-55 0 -81 32t-26 79z" />
<glyph unicode="m" horiz-adv-x="1466" d="M135 74v897q0 48 27 79t82 31h704q195 0 295 -102.5t100 -286.5v-618q0 -48 -26 -79.5t-82 -31.5q-57 0 -83 31.5t-26 79.5v618q0 180 -178 180h-100v-798q0 -48 -26.5 -79.5t-82.5 -31.5t-82 31.5t-26 79.5v798h-279v-798q0 -48 -26 -79.5t-82 -31.5t-82.5 31.5 t-26.5 79.5z" />
<glyph unicode="n" horiz-adv-x="1099" d="M135 74v897q0 48 27 79t82 31h338q195 0 295 -102.5t100 -286.5v-618q0 -48 -26.5 -79.5t-82.5 -31.5q-57 0 -82.5 31.5t-25.5 79.5v618q0 180 -178 180h-230v-798q0 -48 -25.5 -79.5t-82.5 -31.5q-55 0 -82 32t-27 79z" />
<glyph unicode="o" horiz-adv-x="1093" d="M111 373v319q0 185 100 297.5t293 112.5h86q193 0 293 -112.5t100 -297.5v-319q0 -185 -100 -297.5t-293 -112.5h-86q-193 0 -293 112.5t-100 297.5zM328 373q0 -93 43 -147t133 -54h86q90 0 133 54t43 147v319q0 93 -43 147t-133 54h-86q-90 0 -133 -54t-43 -147v-319z " />
<glyph unicode="p" horiz-adv-x="1087" d="M135 -418v1389q0 47 28 78.5t83 31.5h336q195 0 295 -102.5t100 -286.5v-291q0 -187 -104.5 -302t-297.5 -115h-223v-402q0 -48 -26.5 -79t-81.5 -31t-82 31t-27 79zM352 193h223q92 0 138.5 56.5t46.5 151.5v291q0 180 -178 180h-230v-679z" />
<glyph unicode="q" horiz-adv-x="1087" d="M111 373v291q0 187 103 302t296 115h332q56 0 83 -31.5t27 -78.5v-1209q0 -41 19.5 -61t64.5 -20q48 0 78.5 -26t30.5 -79q0 -104 -109 -104q-153 0 -227 71.5t-74 218.5v222h-231q-195 0 -294 102.5t-99 286.5zM328 373q0 -180 176 -180h231v679h-225q-90 0 -136 -56.5 t-46 -151.5v-291z" />
<glyph unicode="r" horiz-adv-x="937" d="M135 74v897q0 47 27 78.5t82 31.5h315q342 0 342 -313q0 -48 -25 -79.5t-81 -31.5t-82.5 31.5t-26.5 79.5q0 52 -34.5 78t-92.5 26h-207v-798q0 -48 -26 -79.5t-82 -31.5t-82.5 31.5t-26.5 79.5z" />
<glyph unicode="s" horiz-adv-x="993" d="M94 227q0 113 109 113q58 0 80 -30t26 -83q2 -29 28.5 -47t74.5 -18h166q112 0 112 94v72q0 56 -63 73l-322 91q-199 56 -199 268v49q0 293 328 293h115q317 0 317 -264q0 -113 -106 -113q-58 0 -82 29.5t-27 81.5q-2 30 -28 48.5t-72 18.5h-117q-115 0 -115 -94v-49 q0 -55 64 -74l319 -88q201 -56 201 -270v-72q0 -293 -325 -293h-166q-318 0 -318 264z" />
<glyph unicode="t" horiz-adv-x="815" d="M-16 977q0 54 30 79t76 25h117v176q0 47 26.5 79t81.5 32t82 -32t27 -79v-176h254q45 0 75.5 -26t30.5 -78t-30.5 -78.5t-75.5 -26.5h-254v-499q0 -180 178 -180h90q49 0 78 -26t29 -79t-29 -78.5t-78 -25.5h-90q-195 0 -295 102.5t-100 286.5v499h-117q-46 0 -76 25 t-30 80z" />
<glyph unicode="u" horiz-adv-x="1099" d="M123 373v618q0 48 26 79.5t82 31.5q57 0 83 -31.5t26 -79.5v-618q0 -180 178 -180h230v798q0 48 25.5 79.5t82.5 31.5q55 0 82 -32t27 -79v-897q0 -48 -27 -79t-82 -31h-338q-195 0 -295 102.5t-100 286.5z" />
<glyph unicode="v" horiz-adv-x="956" d="M33 952q-10 30 -10 55q0 66 75 89q23 7 42 7q27 0 47 -13q35 -22 51 -70l208 -635q22 -68 31 -121h2q9 53 31 121l209 635q28 83 96 83q20 0 43 -7q37 -11 56 -34.5t19 -51t-9 -58.5q-53 -152 -162 -456t-162 -455q-26 -78 -94 -78h-55q-69 0 -95 78z" />
<glyph unicode="w" horiz-adv-x="1312" d="M57 969q-4 20 -4 37q0 76 84 94q18 4 34 4q76 0 95 -92l103 -516q18 -93 24 -172h2q23 97 45 165l109 336q13 41 32 59.5t58 18.5h35q39 0 58 -18.5t32 -59.5l108 -336q26 -79 46 -165h2q6 79 24 172l103 516q19 92 95 92q16 0 34 -4q83 -19 83 -94q0 -17 -4 -37 l-196 -918q-9 -41 -30.5 -64.5t-67.5 -23.5h-39q-72 0 -95 76l-127 397q-27 85 -43 158h-2q-16 -73 -43 -158l-127 -397q-23 -76 -94 -76h-39q-46 0 -67.5 23.5t-30.5 64.5z" />
<glyph unicode="x" horiz-adv-x="892" d="M18 46q-3 12 -3 22q0 26 16 49l282 444l-250 387q-16 22 -16 47q0 13 4 25q11 40 51 65q30 16 57 16q13 0 27 -4q40 -13 64 -50l196 -322l197 322q24 39 63 51q13 4 26 5q28 0 59 -18q41 -27 51 -67q3 -12 3 -22q0 -26 -16 -48l-249 -387l282 -444q16 -23 16 -49 q0 -10 -3 -22q-10 -38 -52 -66q-32 -18 -60 -18q-13 0 -25 4q-38 12 -62 52l-230 375q-19 -31 -102.5 -166.5t-126.5 -208.5q-23 -40 -61 -52q-12 -4 -26 -4q-28 0 -60 18q-42 28 -52 66z" />
<glyph unicode="y" horiz-adv-x="1099" d="M123 373v618q0 48 26 79.5t82 31.5q57 0 83 -31.5t26 -79.5v-618q0 -180 178 -180h230v798q0 48 25.5 79.5t82.5 31.5q55 0 82 -32t27 -79v-1104q0 -185 -104.5 -300t-297.5 -115h-229q-46 0 -76.5 25t-30.5 79q0 52 31 78.5t76 26.5h229q92 0 138.5 55.5t46.5 150.5v97 h-230q-195 0 -295 102.5t-100 286.5z" />
<glyph unicode="z" horiz-adv-x="880" d="M37 80q0 35 20 65l486 734q-49 -7 -86 -7h-285q-48 0 -77 26t-29 79t28.5 78.5t77.5 25.5h549q45 0 75.5 -24t30.5 -72q0 -35 -20 -65l-485 -734q49 7 86 7h329q49 0 78 -26t29 -79t-29 -78.5t-78 -25.5h-594q-45 0 -75.5 24t-30.5 72z" />
<glyph unicode="{" horiz-adv-x="710" d="M45 682q0 41 20.5 61.5t55.5 36.5q21 9 29 13t25.5 14t25 20.5t17.5 26.5t14 38t4 50q0 41 -17 154q-16 110 -16 172q0 161 95.5 258t270.5 147q40 16 83 3.5t59 -62.5q14 -49 -13 -82t-73 -51q-96 -35 -127 -55q-78 -51 -78 -156q0 -48 16 -154q19 -131 19 -172 q0 -97 -36.5 -157t-109.5 -105q73 -45 109.5 -105t36.5 -157q0 -41 -19 -172q-16 -106 -16 -154q0 -50 13.5 -85t47 -59t56 -34.5t72.5 -28.5q11 -4 16 -6q111 -44 86 -131q-16 -50 -59 -62.5t-83 3.5q-175 50 -270.5 147t-95.5 258q0 62 16 172q17 113 17 154q0 28 -4 50 t-14 38t-17.5 26.5t-25 20.5t-25.5 14t-29 13q-23 10 -36.5 19t-26.5 30t-13 49z" />
<glyph unicode="|" horiz-adv-x="634" d="M213 -238v1846q0 108 104 108q55 0 80 -30t25 -78v-1846q0 -106 -105 -106q-104 0 -104 106z" />
<glyph unicode="}" horiz-adv-x="710" d="M0 -250q-25 87 86 131q95 34 126 54q79 52 79 159q0 41 -17 154q-18 124 -18 172q0 97 36 157.5t109 104.5q-73 44 -109 104.5t-36 157.5q0 48 18 172q17 113 17 154q0 49 -13.5 84t-47 58.5t-56 34t-72.5 28.5q-5 2 -8.5 3.5t-7.5 2.5q-114 45 -86 133q29 92 141 59 q176 -51 271.5 -148t95.5 -257q0 -62 -16 -172q-17 -113 -17 -154q0 -28 4 -50t14 -38t17.5 -26.5t25 -20.5t25.5 -14t29 -13q23 -10 36.5 -19t26.5 -30t13 -49q0 -41 -20.5 -61.5t-55.5 -36.5q-21 -9 -29 -13t-25.5 -14t-25 -20.5t-17.5 -26.5t-14 -38t-4 -50 q0 -41 17 -154q16 -110 16 -172q0 -160 -95.5 -257t-271.5 -148q-112 -33 -141 59z" />
<glyph unicode="~" horiz-adv-x="976" d="M76 684q0 137 62 216t175 79q44 0 88 -17t69 -33.5t62 -45.5q28 -23 44 -34.5t39.5 -22.5t43.5 -11q60 0 60 94q0 41 25.5 65.5t68.5 24.5q39 0 63.5 -24.5t24.5 -65.5q0 -132 -62 -210t-173 -78q-46 0 -91.5 17t-72.5 35t-68 50q-71 57 -117 57q-59 0 -59 -96 q0 -35 -26.5 -61.5t-67.5 -26.5q-37 0 -62.5 26.5t-25.5 61.5z" />
<glyph unicode="&#xa1;" horiz-adv-x="491" d="M119 954v21q0 56 30.5 91.5t96.5 35.5t96.5 -35.5t30.5 -91.5v-21q0 -56 -30.5 -91.5t-96.5 -35.5t-96.5 35.5t-30.5 91.5zM137 -295l8 897q0 48 24.5 79.5t76.5 31.5t76 -31.5t24 -79.5l8 -897q0 -111 -108 -111q-58 0 -83.5 31t-25.5 80z" />
<glyph unicode="&#xa2;" horiz-adv-x="1015" d="M111 383v330q0 173 85.5 274t260.5 113v147q0 96 94 96q92 0 92 -96v-145q139 -11 221 -86.5t82 -206.5q0 -51 -26 -81t-82 -30t-82.5 30.5t-26.5 80.5q0 67 -86 80v-715q41 6 63.5 27.5t22.5 54.5q0 50 26.5 80.5t82.5 30.5t82 -30t26 -81q0 -133 -81.5 -207.5 t-221.5 -85.5v-178q0 -98 -92 -98q-49 0 -71.5 27.5t-22.5 70.5v182q-168 17 -257 129.5t-89 286.5zM328 383q0 -82 32.5 -136t96.5 -71v713q-129 -20 -129 -176v-330z" />
<glyph unicode="&#xa3;" horiz-adv-x="1153" d="M35 705q0 49 27 71.5t69 22.5h111v254q0 120 37 211.5t120 148.5t205 57h51q161 0 252.5 -76t91.5 -235q0 -48 -26 -79t-80 -31q-105 0 -109 110q-3 105 -135 105h-41q-78 0 -113.5 -57.5t-35.5 -153.5v-254h237q44 0 71.5 -22.5t27.5 -71.5t-28 -73t-71 -24h-237v-260 q0 -102 -56 -155h361q129 0 129 102q0 108 108 108q55 0 81 -29t26 -79q0 -159 -90 -235t-254 -76h-612q-46 0 -75.5 25.5t-29.5 76.5q0 52 30 79.5t75 27.5q36 0 63 26t27 76v313h-111q-42 0 -69 24t-27 73z" />
<glyph unicode="&#xa5;" horiz-adv-x="1015" d="M18 1384q8 45 50 70q49 24 86 9.5t59 -54.5l236 -428q28 -48 59 -129q31 81 59 129l236 428q22 40 59 54.5t86 -9.5q42 -25 50 -70t-15 -79l-301 -529h192q39 0 64 -21t25 -65t-25 -65t-64 -21h-258v-123h258q39 0 64 -21t25 -65t-25 -65t-64 -21h-258v-235 q0 -47 -26.5 -79t-81.5 -32t-82 32t-27 79v235h-258q-39 0 -63.5 21t-24.5 65t24.5 65t63.5 21h258v123h-258q-39 0 -63.5 21t-24.5 65t24.5 65t63.5 21h193l-301 529q-23 34 -15 79z" />
<glyph unicode="&#xa6;" horiz-adv-x="634" d="M213 -238v699q0 108 104 108q55 0 80 -30t25 -78v-699q0 -106 -105 -106q-104 0 -104 106zM213 909v699q0 108 104 108q55 0 80 -30t25 -78v-699q0 -106 -105 -106q-104 0 -104 106z" />
<glyph unicode="&#xa7;" d="M205 106v1221q0 51 27.5 79t78.5 28h819q51 0 79 -28t28 -79v-1221q0 -51 -28 -78.5t-79 -27.5h-819q-51 0 -78.5 27.5t-27.5 78.5zM317 196.5q2 -18.5 15.5 -31t30 -19.5t35 -1.5t30.5 23.5l293 444l291 -436q13 -20 33 -27t37 -0.5t30 20t14 33.5t-12 40l-323 475 l323 475q13 20 12 40t-14 33t-30 19.5t-37 -0.5t-33 -27l-291 -438l-293 447q-19 30 -53.5 24.5t-49.5 -32.5t1 -58l325 -483l-325 -484q-11 -18 -9 -36.5z" />
<glyph unicode="&#xa8;" horiz-adv-x="819" d="M84 1323v25q0 129 127 129q66 0 97.5 -36t31.5 -93v-25q0 -58 -31 -92.5t-98 -34.5q-127 0 -127 127zM477 1323v25q0 129 127 129q66 0 97.5 -36t31.5 -93v-25q0 -58 -31 -92.5t-98 -34.5q-127 0 -127 127z" />
<glyph unicode="&#xa9;" horiz-adv-x="1470" d="M98 475v483q0 224 126.5 358t340.5 134h338q215 0 342 -134.5t127 -357.5v-483q0 -223 -127 -357t-342 -134h-338q-214 0 -340.5 133.5t-126.5 357.5zM229 475q0 -173 89.5 -271t246.5 -98h338q157 0 247.5 98t90.5 271v483q0 172 -90.5 270.5t-247.5 98.5h-338 q-157 0 -246.5 -98.5t-89.5 -270.5v-483zM428 627v176q0 149 79 232t243 83q133 0 209.5 -59t76.5 -176q0 -37 -19.5 -60.5t-62.5 -23.5t-62.5 23.5t-19.5 60.5q0 36 -35.5 57t-93.5 21q-81 0 -116 -40t-35 -118v-176q0 -78 36.5 -118t121.5 -40q54 0 88 21t34 57 q0 37 19.5 60.5t62.5 23.5t62.5 -23.5t19.5 -60.5q0 -117 -78 -176.5t-215 -59.5q-160 0 -237.5 83.5t-77.5 232.5z" />
<glyph unicode="&#xaa;" horiz-adv-x="659" d="M76 975v33q0 103 55.5 152.5t169.5 49.5h135v15q0 41 -28 62.5t-76 21.5h-117q-30 0 -49 16t-19 49t19 49.5t49 16.5h117q113 0 177 -57.5t64 -153.5v-387q0 -31 -17 -50.5t-52 -19.5h-203q-114 0 -169.5 50t-55.5 153zM213 975q0 -72 88 -72h135v176h-135q-88 0 -88 -75 v-29z" />
<glyph unicode="&#xab;" horiz-adv-x="1095" d="M66 616q0 40 30 70l326 322q69 66 133 2q29 -33 29 -66q0 -36 -31 -67l-262 -261l262 -260q31 -31 31 -67q0 -37 -29 -66q-64 -64 -133 2l-326 322q-30 30 -30 69zM510 616q0 39 31 70l325 322q69 66 133 2q29 -33 29 -66q0 -36 -31 -67l-262 -261l262 -260 q31 -31 31 -67q0 -37 -29 -66q-64 -64 -133 2l-325 322q-31 31 -31 69z" />
<glyph unicode="&#xac;" d="M205 106v1221q0 51 27.5 79t78.5 28h819q51 0 79 -28t28 -79v-1221q0 -51 -28 -78.5t-79 -27.5h-819q-51 0 -78.5 27.5t-27.5 78.5zM317 196.5q2 -18.5 15.5 -31t30 -19.5t35 -1.5t30.5 23.5l293 444l291 -436q13 -20 33 -27t37 -0.5t30 20t14 33.5t-12 40l-323 475 l323 475q13 20 12 40t-14 33t-30 19.5t-37 -0.5t-33 -27l-291 -438l-293 447q-19 30 -53.5 24.5t-49.5 -32.5t1 -58l325 -483l-325 -484q-11 -18 -9 -36.5z" />
<glyph unicode="&#xad;" horiz-adv-x="710" d="M55 760q0 53 30.5 78.5t76.5 25.5h387q46 0 76 -25.5t30 -78.5t-30 -79t-76 -26h-387q-46 0 -76.5 26t-30.5 79z" />
<glyph unicode="&#xae;" horiz-adv-x="849" d="M86 950v254q0 121 69 193.5t185 72.5h170q116 0 185 -72.5t69 -193.5v-254q0 -122 -68.5 -194t-185.5 -72h-170q-117 0 -185.5 72t-68.5 194zM176 950q0 -85 43.5 -132.5t120.5 -47.5h170q77 0 120.5 47.5t43.5 132.5v254q0 85 -43.5 132.5t-120.5 47.5h-170 q-77 0 -120.5 -47.5t-43.5 -132.5v-254zM291 911v330q0 37 37 37h102q148 0 148 -121q0 -72 -58 -110l45 -121q12 -34 -18 -47q-37 -12 -51 22l-50 123h-79v-113q0 -37 -39 -37q-37 0 -37 37zM367 1096h63q72 0 72 61q0 49 -72 49h-63v-110z" />
<glyph unicode="&#xaf;" horiz-adv-x="819" d="M102 1307q0 34 24 59t56 25h453q34 0 58 -25t24 -59q0 -33 -24.5 -57.5t-57.5 -24.5h-453q-32 0 -56 25t-24 57z" />
<glyph unicode="&#xb0;" horiz-adv-x="819" d="M205 1364q0 83 57 140t148 57q90 0 147 -56.5t57 -140.5q0 -82 -57 -138.5t-147 -56.5t-147.5 57t-57.5 138zM336 1364q0 -31 20.5 -50.5t53.5 -19.5q32 0 50.5 19.5t18.5 50.5t-18.5 50.5t-50.5 19.5q-33 0 -53.5 -19.5t-20.5 -50.5z" />
<glyph unicode="&#xb1;" horiz-adv-x="647" d="M-6 1341q0 51 31 80t75 29h289q44 0 75.5 -29t31.5 -80v-1267q0 -46 -29.5 -78.5t-83.5 -32.5q-57 0 -85 32t-28 79v1159h-170q-45 0 -75.5 26.5t-30.5 81.5zM229 1718q0 68 31.5 105t108.5 37q139 0 139 -142q0 -137 -139 -137q-77 0 -108.5 35t-31.5 102z" />
<glyph unicode="&#xb2;" d="M205 106v1221q0 51 27.5 79t78.5 28h819q51 0 79 -28t28 -79v-1221q0 -51 -28 -78.5t-79 -27.5h-819q-51 0 -78.5 27.5t-27.5 78.5zM317 196.5q2 -18.5 15.5 -31t30 -19.5t35 -1.5t30.5 23.5l293 444l291 -436q13 -20 33 -27t37 -0.5t30 20t14 33.5t-12 40l-323 475 l323 475q13 20 12 40t-14 33t-30 19.5t-37 -0.5t-33 -27l-291 -438l-293 447q-19 30 -53.5 24.5t-49.5 -32.5t1 -58l325 -483l-325 -484q-11 -18 -9 -36.5z" />
<glyph unicode="&#xb3;" d="M205 106v1221q0 51 27.5 79t78.5 28h819q51 0 79 -28t28 -79v-1221q0 -51 -28 -78.5t-79 -27.5h-819q-51 0 -78.5 27.5t-27.5 78.5zM317 196.5q2 -18.5 15.5 -31t30 -19.5t35 -1.5t30.5 23.5l293 444l291 -436q13 -20 33 -27t37 -0.5t30 20t14 33.5t-12 40l-323 475 l323 475q13 20 12 40t-14 33t-30 19.5t-37 -0.5t-33 -27l-291 -438l-293 447q-19 30 -53.5 24.5t-49.5 -32.5t1 -58l325 -483l-325 -484q-11 -18 -9 -36.5z" />
<glyph unicode="&#xb4;" horiz-adv-x="819" d="M205 1231q-24 54 33 94l254 184q47 35 90 35q59 0 88 -65q13 -28 14 -51t-9.5 -39.5t-25 -28.5t-37.5 -23l-305 -137q-39 -15 -64 -5.5t-38 36.5z" />
<glyph unicode="&#xb6;" d="M205 106v1221q0 51 27.5 79t78.5 28h819q51 0 79 -28t28 -79v-1221q0 -51 -28 -78.5t-79 -27.5h-819q-51 0 -78.5 27.5t-27.5 78.5zM317 196.5q2 -18.5 15.5 -31t30 -19.5t35 -1.5t30.5 23.5l293 444l291 -436q13 -20 33 -27t37 -0.5t30 20t14 33.5t-12 40l-323 475 l323 475q13 20 12 40t-14 33t-30 19.5t-37 -0.5t-33 -27l-291 -438l-293 447q-19 30 -53.5 24.5t-49.5 -32.5t1 -58l325 -483l-325 -484q-11 -18 -9 -36.5z" />
<glyph unicode="&#xb7;" horiz-adv-x="368" d="M57 745v21q0 56 30.5 91.5t96.5 35.5t96.5 -35.5t30.5 -91.5v-21q0 -56 -30.5 -91.5t-96.5 -35.5t-96.5 35.5t-30.5 91.5z" />
<glyph unicode="&#xb8;" horiz-adv-x="819" d="M166 -381q0 34 22 57t62 23q28 0 76 -29q43 -26 75 -26q24 0 38 10.5t14 28.5q0 19 -10 32.5t-37 30.5q-26 18 -42.5 32t-38 38.5t-32 55.5t-10.5 69q0 65 41 116l133 -30q-15 -41 -15 -70q0 -36 17.5 -57t56.5 -45q117 -80 117 -189q0 -77 -63 -131.5t-171 -54.5 q-92 0 -162.5 42.5t-70.5 96.5z" />
<glyph unicode="&#xb9;" d="M205 106v1221q0 51 27.5 79t78.5 28h819q51 0 79 -28t28 -79v-1221q0 -51 -28 -78.5t-79 -27.5h-819q-51 0 -78.5 27.5t-27.5 78.5zM317 196.5q2 -18.5 15.5 -31t30 -19.5t35 -1.5t30.5 23.5l293 444l291 -436q13 -20 33 -27t37 -0.5t30 20t14 33.5t-12 40l-323 475 l323 475q13 20 12 40t-14 33t-30 19.5t-37 -0.5t-33 -27l-291 -438l-293 447q-19 30 -53.5 24.5t-49.5 -32.5t1 -58l325 -483l-325 -484q-11 -18 -9 -36.5z" />
<glyph unicode="&#xba;" horiz-adv-x="684" d="M76 1036v125q0 130 62.5 204.5t191.5 74.5h24q129 0 191.5 -74.5t62.5 -204.5v-125q0 -130 -62.5 -204t-191.5 -74h-24q-129 0 -191.5 74t-62.5 204zM213 1036q0 -72 26.5 -109.5t90.5 -37.5h24q64 0 90.5 37.5t26.5 109.5v125q0 72 -26.5 110t-90.5 38h-24 q-64 0 -90.5 -38t-26.5 -110v-125z" />
<glyph unicode="&#xbb;" horiz-adv-x="1095" d="M68 289q0 37 30 67l262 260l-262 261q-30 30 -30 67q0 38 28 66q63 63 131 -2l328 -322q31 -31 31 -70q0 -38 -31 -69l-328 -322q-68 -65 -131 -2q-28 24 -28 66zM512 289q0 36 31 67l262 260l-262 261q-31 31 -31 67q0 37 29 66q63 63 131 -2l327 -322q31 -31 31 -70 q0 -38 -31 -69l-327 -322q-68 -65 -131 -2q-29 25 -29 66z" />
<glyph unicode="&#xbc;" d="M205 106v1221q0 51 27.5 79t78.5 28h819q51 0 79 -28t28 -79v-1221q0 -51 -28 -78.5t-79 -27.5h-819q-51 0 -78.5 27.5t-27.5 78.5zM317 196.5q2 -18.5 15.5 -31t30 -19.5t35 -1.5t30.5 23.5l293 444l291 -436q13 -20 33 -27t37 -0.5t30 20t14 33.5t-12 40l-323 475 l323 475q13 20 12 40t-14 33t-30 19.5t-37 -0.5t-33 -27l-291 -438l-293 447q-19 30 -53.5 24.5t-49.5 -32.5t1 -58l325 -483l-325 -484q-11 -18 -9 -36.5z" />
<glyph unicode="&#xbd;" d="M205 106v1221q0 51 27.5 79t78.5 28h819q51 0 79 -28t28 -79v-1221q0 -51 -28 -78.5t-79 -27.5h-819q-51 0 -78.5 27.5t-27.5 78.5zM317 196.5q2 -18.5 15.5 -31t30 -19.5t35 -1.5t30.5 23.5l293 444l291 -436q13 -20 33 -27t37 -0.5t30 20t14 33.5t-12 40l-323 475 l323 475q13 20 12 40t-14 33t-30 19.5t-37 -0.5t-33 -27l-291 -438l-293 447q-19 30 -53.5 24.5t-49.5 -32.5t1 -58l325 -483l-325 -484q-11 -18 -9 -36.5z" />
<glyph unicode="&#xbe;" d="M205 106v1221q0 51 27.5 79t78.5 28h819q51 0 79 -28t28 -79v-1221q0 -51 -28 -78.5t-79 -27.5h-819q-51 0 -78.5 27.5t-27.5 78.5zM317 196.5q2 -18.5 15.5 -31t30 -19.5t35 -1.5t30.5 23.5l293 444l291 -436q13 -20 33 -27t37 -0.5t30 20t14 33.5t-12 40l-323 475 l323 475q13 20 12 40t-14 33t-30 19.5t-37 -0.5t-33 -27l-291 -438l-293 447q-19 30 -53.5 24.5t-49.5 -32.5t1 -58l325 -483l-325 -484q-11 -18 -9 -36.5z" />
<glyph unicode="&#xbf;" horiz-adv-x="983" d="M70 -8q0 109 57.5 197.5t185.5 162.5l43 25q44 26 70.5 72.5t26.5 107.5v45q0 48 25.5 79.5t80.5 31.5t81 -32t26 -79v-31q0 -131 -50 -225t-165 -156l-41 -22q-127 -67 -127 -176v-29q0 -83 44.5 -123.5t139.5 -40.5h119q58 0 94.5 28.5t36.5 80.5q0 47 25.5 78.5 t80.5 31.5t81 -31.5t26 -78.5q0 -314 -344 -314h-115q-199 0 -300 95t-101 274v29zM432 954v21q0 56 30.5 91.5t96.5 35.5t96.5 -35.5t30.5 -91.5v-21q0 -56 -30.5 -91.5t-96.5 -35.5t-96.5 35.5t-30.5 91.5z" />
<glyph unicode="&#xc0;" horiz-adv-x="1091" d="M14 106l414 1283q25 81 113 81h10q88 0 113 -81l413 -1283q14 -44 -3.5 -83t-63.5 -54q-48 -17 -89 4.5t-55 65.5l-110 348h-420q-17 -58 -55.5 -174.5t-55.5 -173.5q-14 -44 -54.5 -65.5t-88.5 -4.5q-46 17 -64 55t-4 82zM274 1870q29 65 88 65q45 0 91 -34l254 -185 q56 -39 32 -94q-11 -27 -38.5 -36.5t-63.5 5.5l-305 138q-101 46 -58 141zM397 592h297l-116 373q-21 68 -31 116h-2q-10 -48 -31 -116z" />
<glyph unicode="&#xc1;" horiz-adv-x="1091" d="M14 106l414 1283q25 81 113 81h10q88 0 113 -81l413 -1283q14 -44 -3.5 -83t-63.5 -54q-48 -17 -89 4.5t-55 65.5l-110 348h-420q-17 -58 -55.5 -174.5t-55.5 -173.5q-14 -44 -54.5 -65.5t-88.5 -4.5q-46 17 -64 55t-4 82zM332 1622q-24 54 33 94l253 185q46 34 91 34 q59 0 88 -65q13 -28 14 -50.5t-9.5 -39.5t-25 -28.5t-37.5 -22.5l-305 -138q-39 -15 -64 -5.5t-38 36.5zM397 592h297l-116 373q-21 68 -31 116h-2q-10 -48 -31 -116z" />
<glyph unicode="&#xc2;" horiz-adv-x="1091" d="M14 106l414 1283q25 81 113 81h10q88 0 113 -81l413 -1283q14 -44 -3.5 -83t-63.5 -54q-48 -17 -89 4.5t-55 65.5l-110 348h-420q-17 -58 -55.5 -174.5t-55.5 -173.5q-14 -44 -54.5 -65.5t-88.5 -4.5q-46 17 -64 55t-4 82zM211 1633q1 24 20 42l248 244q37 33 68 33 q34 0 67 -33l248 -244q17 -17 18 -41t-12.5 -44t-32.5 -34.5t-43.5 -14t-43.5 19.5l-201 194l-201 -194q-19 -18 -43.5 -18.5t-44.5 13.5t-34 33.5t-13 43.5zM397 592h297l-116 373q-21 68 -31 116h-2q-10 -48 -31 -116z" />
<glyph unicode="&#xc3;" horiz-adv-x="1091" d="M14 106l414 1283q25 81 113 81h10q88 0 113 -81l413 -1283q14 -44 -3.5 -83t-63.5 -54q-48 -17 -89 4.5t-55 65.5l-110 348h-420q-17 -58 -55.5 -174.5t-55.5 -173.5q-14 -44 -54.5 -65.5t-88.5 -4.5q-46 17 -64 55t-4 82zM205 1634q0 109 51.5 178.5t146.5 69.5 q33 0 69.5 -15t52 -25.5t55.5 -39.5q2 -2 11.5 -9t12.5 -9t11.5 -7.5t12 -7.5t10.5 -6.5t12 -6t11 -3.5t11.5 -3t11.5 -1q45 0 45 72q0 32 23.5 54.5t56.5 22.5q32 0 55 -22.5t23 -54.5q0 -107 -52 -177.5t-145 -70.5q-76 0 -180 82q-65 51 -102 51q-22 0 -34 -21t-12 -51 q0 -32 -23.5 -55t-55.5 -23t-55 23t-23 55zM397 592h297l-116 373q-21 68 -31 116h-2q-10 -48 -31 -116z" />
<glyph unicode="&#xc4;" horiz-adv-x="1091" d="M14 106l414 1283q25 81 113 81h10q88 0 113 -81l413 -1283q14 -44 -3.5 -83t-63.5 -54q-48 -17 -89 4.5t-55 65.5l-110 348h-420q-17 -58 -55.5 -174.5t-55.5 -173.5q-14 -44 -54.5 -65.5t-88.5 -4.5q-46 17 -64 55t-4 82zM221 1714v25q0 129 127 129q66 0 97.5 -36 t31.5 -93v-25q0 -58 -31 -92.5t-98 -34.5q-127 0 -127 127zM397 592h297l-116 373q-21 68 -31 116h-2q-10 -48 -31 -116zM614 1714v25q0 129 127 129q66 0 97.5 -36t31.5 -93v-25q0 -58 -31 -92.5t-98 -34.5q-127 0 -127 127z" />
<glyph unicode="&#xc5;" horiz-adv-x="1091" d="M14 106l414 1283q25 81 113 81h10q88 0 113 -81l413 -1283q14 -44 -3.5 -83t-63.5 -54q-48 -17 -89 4.5t-55 65.5l-110 348h-420q-17 -58 -55.5 -174.5t-55.5 -173.5q-14 -44 -54.5 -65.5t-88.5 -4.5q-46 17 -64 55t-4 82zM340 1755q0 83 57 140t148 57t148 -57t57 -140 q0 -81 -57.5 -137.5t-147.5 -56.5t-147.5 56.5t-57.5 137.5zM397 592h297l-116 373q-21 68 -31 116h-2q-10 -48 -31 -116zM471 1755q0 -31 20 -50t54 -19q32 0 50.5 19t18.5 50t-18.5 50.5t-50.5 19.5q-33 0 -53.5 -19.5t-20.5 -50.5z" />
<glyph unicode="&#xc6;" horiz-adv-x="1650" d="M14 106l408 1262q26 82 113 82h952q44 0 75 -29t31 -80q0 -55 -30.5 -81.5t-75.5 -26.5h-492v-387h394q44 0 75 -29t31 -80q0 -55 -30.5 -81.5t-75.5 -26.5h-394v-428h492q44 0 75 -29t31 -80q0 -55 -30.5 -81.5t-75.5 -26.5h-606q-55 0 -83 31.5t-28 78.5v350h-416 l-129 -403q-14 -45 -53 -67t-88 -5q-46 15 -65 54t-5 83zM416 649h354v584h-166z" />
<glyph unicode="&#xc7;" horiz-adv-x="1155" d="M119 389v655q0 184 105.5 305t299.5 121h209q352 0 352 -321q0 -47 -28 -79t-86 -32q-54 0 -81 30.5t-30 78.5q-9 106 -127 106h-209q-92 0 -136 -57.5t-44 -151.5v-655q0 -94 44 -151.5t136 -57.5h209q119 0 127 107q11 108 111 108q58 0 86 -31.5t28 -78.5 q0 -164 -91.5 -243t-260.5 -79h-74v-6q0 -27 11.5 -48t25 -32t41.5 -29q113 -81 113 -182q0 -74 -61 -126t-164 -52q-89 0 -157.5 40t-68.5 91q0 31 20.5 51.5t55.5 20.5q27 0 74 -28t78 -28q27 0 43 13.5t16 34.5q0 20 -11 35t-40 34q-26 19 -41 32t-36.5 37t-31.5 54 t-10 66v22q-190 3 -293.5 123.5t-103.5 302.5z" />
<glyph unicode="&#xc8;" horiz-adv-x="1073" d="M139 94v1245q0 47 28 79t83 32h659q44 0 75.5 -29t31.5 -80q0 -55 -30.5 -81.5t-76.5 -26.5h-544v-387h446q44 0 75.5 -29t31.5 -80q0 -55 -30.5 -81.5t-76.5 -26.5h-446v-428h544q44 0 75.5 -29t31.5 -80q0 -55 -30.5 -81.5t-76.5 -26.5h-659q-55 0 -83 31.5t-28 78.5z M287 1870q29 65 88 65q44 0 90 -34l254 -185q57 -40 33 -94q-11 -27 -39 -36.5t-64 5.5l-305 138q-100 45 -57 141z" />
<glyph unicode="&#xc9;" horiz-adv-x="1073" d="M139 94v1245q0 47 28 79t83 32h659q44 0 75.5 -29t31.5 -80q0 -55 -30.5 -81.5t-76.5 -26.5h-544v-387h446q44 0 75.5 -29t31.5 -80q0 -55 -30.5 -81.5t-76.5 -26.5h-446v-428h544q44 0 75.5 -29t31.5 -80q0 -55 -30.5 -81.5t-76.5 -26.5h-659q-55 0 -83 31.5t-28 78.5z M354 1622q-24 54 33 94l254 185q46 34 90 34q59 0 88 -65q13 -28 14 -50.5t-9 -39.5t-24.5 -28.5t-37.5 -22.5l-305 -138q-39 -15 -64.5 -5.5t-38.5 36.5z" />
<glyph unicode="&#xca;" horiz-adv-x="1073" d="M139 94v1245q0 47 28 79t83 32h659q44 0 75.5 -29t31.5 -80q0 -55 -30.5 -81.5t-76.5 -26.5h-544v-387h446q44 0 75.5 -29t31.5 -80q0 -55 -30.5 -81.5t-76.5 -26.5h-446v-428h544q44 0 75.5 -29t31.5 -80q0 -55 -30.5 -81.5t-76.5 -26.5h-659q-55 0 -83 31.5t-28 78.5z M224 1654q1 24 20 42l248 243q37 33 67 33q35 0 68 -33l247 -243q17 -17 18 -41t-12.5 -44t-32.5 -35t-43.5 -14.5t-43.5 19.5l-201 195l-201 -195q-19 -18 -43.5 -18.5t-44 13.5t-33.5 34t-13 44z" />
<glyph unicode="&#xcb;" horiz-adv-x="1073" d="M139 94v1245q0 47 28 79t83 32h659q44 0 75.5 -29t31.5 -80q0 -55 -30.5 -81.5t-76.5 -26.5h-544v-387h446q44 0 75.5 -29t31.5 -80q0 -55 -30.5 -81.5t-76.5 -26.5h-446v-428h544q44 0 75.5 -29t31.5 -80q0 -55 -30.5 -81.5t-76.5 -26.5h-659q-55 0 -83 31.5t-28 78.5z M233 1714v25q0 129 127 129q66 0 97.5 -36t31.5 -93v-25q0 -58 -31 -92.5t-98 -34.5q-127 0 -127 127zM627 1714v25q0 129 127 129q66 0 97.5 -36t31.5 -93v-25q0 -58 -31 -92.5t-98 -34.5q-127 0 -127 127z" />
<glyph unicode="&#xcc;" horiz-adv-x="860" d="M41 92q0 55 30.5 82t75.5 27h170v1032h-170q-45 0 -75.5 26.5t-30.5 81.5q0 51 31 80t75 29h566q44 0 75 -29t31 -80q0 -55 -30.5 -81.5t-75.5 -26.5h-170v-1032h170q45 0 75.5 -27t30.5 -82q0 -51 -31 -79.5t-75 -28.5h-566q-44 0 -75 28.5t-31 79.5zM180 1870 q29 65 88 65q44 0 90 -34l254 -185q57 -40 33 -94q-11 -27 -38.5 -36.5t-63.5 5.5l-305 138q-101 46 -58 141z" />
<glyph unicode="&#xcd;" horiz-adv-x="860" d="M41 92q0 55 30.5 82t75.5 27h170v1032h-170q-45 0 -75.5 26.5t-30.5 81.5q0 51 31 80t75 29h566q44 0 75 -29t31 -80q0 -55 -30.5 -81.5t-75.5 -26.5h-170v-1032h170q45 0 75.5 -27t30.5 -82q0 -51 -31 -79.5t-75 -28.5h-566q-44 0 -75 28.5t-31 79.5zM217 1622 q-24 54 33 94l254 185q46 34 90 34q59 0 88 -65q13 -28 14 -50.5t-9 -39.5t-24.5 -28.5t-37.5 -22.5l-306 -138q-39 -15 -64 -5.5t-38 36.5z" />
<glyph unicode="&#xce;" horiz-adv-x="860" d="M41 92q0 55 30.5 82t75.5 27h170v1032h-170q-45 0 -75.5 26.5t-30.5 81.5q0 51 31 80t75 29h566q44 0 75 -29t31 -80q0 -55 -30.5 -81.5t-75.5 -26.5h-170v-1032h170q45 0 75.5 -27t30.5 -82q0 -51 -31 -79.5t-75 -28.5h-566q-44 0 -75 28.5t-31 79.5zM97 1654 q1 24 20 42l248 243q37 33 67 33q35 0 68 -33l248 -243q17 -17 18 -41t-12.5 -44t-33 -35t-44 -14.5t-43.5 19.5l-201 195l-201 -195q-19 -18 -43.5 -18.5t-44 13.5t-33.5 34t-13 44z" />
<glyph unicode="&#xcf;" horiz-adv-x="860" d="M41 92q0 55 30.5 82t75.5 27h170v1032h-170q-45 0 -75.5 26.5t-30.5 81.5q0 51 31 80t75 29h566q44 0 75 -29t31 -80q0 -55 -30.5 -81.5t-75.5 -26.5h-170v-1032h170q45 0 75.5 -27t30.5 -82q0 -51 -31 -79.5t-75 -28.5h-566q-44 0 -75 28.5t-31 79.5zM106 1714v25 q0 129 127 129q66 0 97.5 -36t31.5 -93v-25q0 -58 -31 -92.5t-98 -34.5q-127 0 -127 127zM500 1714v25q0 129 127 129q66 0 97.5 -36t31.5 -93v-25q0 -58 -31 -92.5t-98 -34.5q-127 0 -127 127z" />
<glyph unicode="&#xd0;" horiz-adv-x="1288" d="M-6 780q0 53 30 78t76 25h105v456q0 47 28 79t86 32h445q131 0 224 -58t137 -152.5t44 -215.5v-530q0 -143 -56 -257.5t-168 -183.5t-263 -69h-363q-58 0 -86 31.5t-28 78.5v584h-105q-46 0 -76 24.5t-30 77.5zM430 201h252q127 0 194.5 81.5t67.5 211.5v530 q0 94 -44 151.5t-136 57.5h-334v-350h174q46 0 76.5 -25t30.5 -78t-30.5 -77.5t-76.5 -24.5h-174v-477z" />
<glyph unicode="&#xd1;" horiz-adv-x="1234" d="M139 74v1286q0 47 28.5 78.5t86.5 31.5q68 0 111 -77l516 -916h2q-9 83 -9 141v742q0 47 27 78.5t82 31.5q58 0 85.5 -31.5t27.5 -78.5v-1286q0 -47 -28.5 -79t-86.5 -32q-67 0 -111 78l-516 917h-2q8 -74 8 -141v-743q0 -47 -26.5 -79t-81.5 -32q-57 0 -85 32t-28 79z M285 1634q0 109 51.5 178.5t146.5 69.5q11 0 21.5 -1.5t19 -3t19.5 -6t18 -7t18.5 -9t16 -9t16.5 -11t15.5 -11t16.5 -11.5t15 -11q59 -43 84 -50q11 -3 21 -3q45 0 45 72q0 32 23.5 54.5t56.5 22.5q32 0 55 -22.5t23 -54.5q0 -107 -52 -177.5t-145 -70.5q-76 0 -180 82 q-65 51 -103 51q-22 0 -33.5 -21t-11.5 -51q0 -32 -24 -55t-56 -23t-54.5 23t-22.5 55z" />
<glyph unicode="&#xd2;" horiz-adv-x="1212" d="M119 389v655q0 184 105.5 305t299.5 121h164q194 0 300 -121t106 -305v-655q0 -184 -106 -305t-300 -121h-164q-194 0 -299.5 121t-105.5 305zM344 389q0 -94 44 -151.5t136 -57.5h164q92 0 136 57.5t44 151.5v655q0 94 -44 151.5t-136 57.5h-164q-92 0 -136 -57.5 t-44 -151.5v-655zM356 1870q29 65 88 65q45 0 91 -34l253 -185q57 -40 33 -94q-11 -27 -38.5 -36.5t-63.5 5.5l-305 138q-101 46 -58 141z" />
<glyph unicode="&#xd3;" horiz-adv-x="1212" d="M119 389v655q0 184 105.5 305t299.5 121h164q194 0 300 -121t106 -305v-655q0 -184 -106 -305t-300 -121h-164q-194 0 -299.5 121t-105.5 305zM344 389q0 -94 44 -151.5t136 -57.5h164q92 0 136 57.5t44 151.5v655q0 94 -44 151.5t-136 57.5h-164q-92 0 -136 -57.5 t-44 -151.5v-655zM393 1622q-24 54 33 94l254 185q46 34 90 34q59 0 88 -65q13 -28 14 -50.5t-9 -39.5t-24.5 -28.5t-37.5 -22.5l-305 -138q-39 -15 -64.5 -5.5t-38.5 36.5z" />
<glyph unicode="&#xd4;" horiz-adv-x="1212" d="M119 389v655q0 184 105.5 305t299.5 121h164q194 0 300 -121t106 -305v-655q0 -184 -106 -305t-300 -121h-164q-194 0 -299.5 121t-105.5 305zM273 1654q1 24 20 42l248 243q37 33 67 33q35 0 68 -33l248 -243q17 -17 18 -41t-12.5 -44t-33 -35t-44 -14.5t-43.5 19.5 l-201 195l-200 -195q-19 -18 -43.5 -18.5t-44.5 13.5t-34 34t-13 44zM344 389q0 -94 44 -151.5t136 -57.5h164q92 0 136 57.5t44 151.5v655q0 94 -44 151.5t-136 57.5h-164q-92 0 -136 -57.5t-44 -151.5v-655z" />
<glyph unicode="&#xd5;" horiz-adv-x="1212" d="M119 389v655q0 184 105.5 305t299.5 121h164q194 0 300 -121t106 -305v-655q0 -184 -106 -305t-300 -121h-164q-194 0 -299.5 121t-105.5 305zM266 1634q0 109 52 178.5t147 69.5q11 0 21.5 -1.5t19 -3t19.5 -6t18 -7t18.5 -9t16 -9t16.5 -11t15.5 -11t16.5 -11.5t15 -11 t11.5 -9t12.5 -9t11.5 -7.5t12 -7.5t10.5 -6.5t12 -6t11 -3.5t11.5 -3t11.5 -1q46 0 46 72q0 32 23.5 54.5t55.5 22.5t55 -22.5t23 -54.5q0 -108 -51.5 -178t-144.5 -70q-77 0 -181 82q-65 51 -102 51q-22 0 -33.5 -21t-11.5 -51q0 -32 -24 -55t-56 -23t-55 23t-23 55z M344 389q0 -94 44 -151.5t136 -57.5h164q92 0 136 57.5t44 151.5v655q0 94 -44 151.5t-136 57.5h-164q-92 0 -136 -57.5t-44 -151.5v-655z" />
<glyph unicode="&#xd6;" horiz-adv-x="1212" d="M119 389v655q0 184 105.5 305t299.5 121h164q194 0 300 -121t106 -305v-655q0 -184 -106 -305t-300 -121h-164q-194 0 -299.5 121t-105.5 305zM283 1714v25q0 129 127 129q66 0 97.5 -36t31.5 -93v-25q0 -58 -31 -92.5t-98 -34.5q-127 0 -127 127zM344 389 q0 -94 44 -151.5t136 -57.5h164q92 0 136 57.5t44 151.5v655q0 94 -44 151.5t-136 57.5h-164q-92 0 -136 -57.5t-44 -151.5v-655zM676 1714v25q0 129 127 129q66 0 97.5 -36t31.5 -93v-25q0 -58 -31 -92.5t-98 -34.5q-127 0 -127 127z" />
<glyph unicode="&#xd7;" horiz-adv-x="1024" d="M61 225q0 43 33 76l275 274l-273 273q-35 32 -35 74t31 73t72 31q43 0 76 -33l272 -274l272 274q33 33 74 33q43 0 74 -31t31 -71q0 -43 -33 -76l-275 -273l275 -274q35 -35 35 -76q0 -38 -33 -71q-31 -31 -72 -31q-43 0 -76 33l-272 274l-272 -274q-33 -33 -76 -33 q-41 0 -72 31t-31 71z" />
<glyph unicode="&#xd8;" horiz-adv-x="1212" d="M119 389v655q0 184 105.5 305t299.5 121h164q62 0 109 -12l32 84q12 31 39.5 46.5t65.5 2.5q77 -24 47 -106l-37 -96q72 -58 111 -148.5t39 -196.5v-655q0 -184 -106 -305t-300 -121h-164q-58 0 -108 12l-33 -84q-11 -32 -38.5 -47t-65.5 -2q-39 13 -50.5 44.5t2.5 62.5 l35 96q-69 58 -108 149.5t-39 194.5zM344 389q0 -67 12 -110q54 145 176.5 469t188.5 503q-12 2 -33 2h-164q-92 0 -136 -57.5t-44 -151.5v-655zM489 182q12 -2 35 -2h164q92 0 136 57.5t44 151.5v655q0 76 -12 111q-57 -152 -179.5 -474.5t-187.5 -498.5z" />
<glyph unicode="&#xd9;" horiz-adv-x="1210" d="M127 389v971q0 46 29.5 78t83.5 32q57 0 84.5 -31.5t27.5 -78.5v-971q0 -94 44 -151.5t136 -57.5h146q92 0 136 57.5t44 151.5v971q0 46 29.5 78t83.5 32q57 0 84.5 -31.5t27.5 -78.5v-971q0 -184 -105.5 -305t-299.5 -121h-146q-194 0 -299.5 121t-105.5 305zM334 1870 q29 65 88 65q44 0 90 -34l254 -185q57 -40 33 -94q-11 -27 -39 -36.5t-64 5.5l-305 138q-100 45 -57 141z" />
<glyph unicode="&#xda;" horiz-adv-x="1210" d="M127 389v971q0 46 29.5 78t83.5 32q57 0 84.5 -31.5t27.5 -78.5v-971q0 -94 44 -151.5t136 -57.5h146q92 0 136 57.5t44 151.5v971q0 46 29.5 78t83.5 32q57 0 84.5 -31.5t27.5 -78.5v-971q0 -184 -105.5 -305t-299.5 -121h-146q-194 0 -299.5 121t-105.5 305zM412 1622 q-24 55 32 94l254 185q46 34 90 34q60 0 89 -65q13 -28 14 -50.5t-9.5 -39.5t-25 -28.5t-37.5 -22.5l-305 -138q-39 -15 -64 -5.5t-38 36.5z" />
<glyph unicode="&#xdb;" horiz-adv-x="1210" d="M127 389v971q0 46 29.5 78t83.5 32q57 0 84.5 -31.5t27.5 -78.5v-971q0 -94 44 -151.5t136 -57.5h146q92 0 136 57.5t44 151.5v971q0 46 29.5 78t83.5 32q57 0 84.5 -31.5t27.5 -78.5v-971q0 -184 -105.5 -305t-299.5 -121h-146q-194 0 -299.5 121t-105.5 305zM271 1654 q1 24 20 42l248 243q37 33 67 33q35 0 68 -33l248 -243q17 -17 18 -41t-12.5 -44t-33 -35t-44 -14.5t-43.5 19.5l-201 195l-200 -195q-19 -18 -43.5 -18.5t-44.5 13.5t-34 34t-13 44z" />
<glyph unicode="&#xdc;" horiz-adv-x="1210" d="M127 389v971q0 46 29.5 78t83.5 32q57 0 84.5 -31.5t27.5 -78.5v-971q0 -94 44 -151.5t136 -57.5h146q92 0 136 57.5t44 151.5v971q0 46 29.5 78t83.5 32q57 0 84.5 -31.5t27.5 -78.5v-971q0 -184 -105.5 -305t-299.5 -121h-146q-194 0 -299.5 121t-105.5 305zM281 1714 v25q0 129 127 129q66 0 97.5 -36t31.5 -93v-25q0 -58 -31 -92.5t-98 -34.5q-127 0 -127 127zM674 1714v25q0 129 127 129q66 0 97.5 -36t31.5 -93v-25q0 -58 -31 -92.5t-98 -34.5q-127 0 -127 127z" />
<glyph unicode="&#xdd;" horiz-adv-x="995" d="M5.5 1384q6.5 42 51.5 70q52 25 89.5 10t60.5 -55l231 -420q31 -53 60 -129q31 81 59 129l231 420q23 40 60.5 55t89.5 -10q45 -28 52 -70t-17 -79l-363 -658v-573q0 -47 -28 -79t-84 -32t-84.5 32t-28.5 79v573l-362 658q-24 37 -17.5 79zM354 1581q-24 54 33 94 l254 185q46 34 90 34q59 0 88 -65q13 -28 14 -50.5t-9 -39.5t-24.5 -28.5t-37.5 -22.5l-305 -138q-39 -15 -64.5 -5.5t-38.5 36.5z" />
<glyph unicode="&#xde;" horiz-adv-x="1146" d="M139 74v1286q0 47 28.5 78.5t84.5 31.5t84.5 -31.5t28.5 -78.5v-178h303q201 0 305 -104.5t104 -289.5v-102q0 -185 -105.5 -299.5t-303.5 -114.5h-303v-198q0 -47 -28.5 -79t-84.5 -32t-84.5 32t-28.5 79zM365 489h303q93 0 138.5 53t45.5 144v102q0 179 -184 179h-303 v-478z" />
<glyph unicode="&#xdf;" horiz-adv-x="1169" d="M135 -418v1536q0 201 106.5 317.5t303.5 116.5h69q174 0 271.5 -78.5t97.5 -248.5v-66q0 -227 -246 -328q-23 -8 -35.5 -14t-22 -17t-9.5 -26q0 -24 53 -39l135 -39q213 -62 213 -299v-123q0 -311 -342 -311h-18q-138 0 -218.5 55t-80.5 168q0 111 104 111 q27 0 46.5 -7.5t31 -23t17 -28.5t12.5 -35q14 -41 79 -41h19q61 0 96 28t35 84v123q0 88 -96 115l-109 31q-190 55 -190 231q0 27 4 50.5t16 44t20.5 35.5t29.5 31.5t30.5 25t37 23.5t35.5 19l38 19q53 27 75.5 59t22.5 78v66q0 65 -42.5 96t-109.5 31h-69q-97 0 -145 -61.5 t-48 -172.5v-1536q0 -48 -25.5 -79t-82.5 -31t-83 31t-26 79z" />
<glyph unicode="&#xe0;" horiz-adv-x="1034" d="M98 276v158q0 145 86 218t240 73h270v23q0 65 -34.5 97t-92.5 32h-264q-48 0 -78 25t-30 77t30 77t78 25h264q158 0 251 -91t93 -240v-656q0 -47 -27.5 -78.5t-82.5 -31.5h-377q-154 0 -240 73t-86 219zM268 1479q29 65 88 65q43 0 90 -35l254 -184q57 -40 33 -94 q-11 -27 -38.5 -36.5t-63.5 5.5l-305 137q-101 46 -58 142zM315 276q0 -40 27.5 -64t81.5 -24h270v332h-270q-54 0 -81.5 -24t-27.5 -66v-154z" />
<glyph unicode="&#xe1;" horiz-adv-x="1034" d="M98 276v158q0 145 86 218t240 73h270v23q0 65 -34.5 97t-92.5 32h-264q-48 0 -78 25t-30 77t30 77t78 25h264q158 0 251 -91t93 -240v-656q0 -47 -27.5 -78.5t-82.5 -31.5h-377q-154 0 -240 73t-86 219zM291 1231q-24 54 33 94l254 184q47 35 90 35q59 0 88 -65 q13 -28 14 -51t-9.5 -39.5t-25 -28.5t-37.5 -23l-305 -137q-39 -15 -64 -5.5t-38 36.5zM315 276q0 -40 27.5 -64t81.5 -24h270v332h-270q-54 0 -81.5 -24t-27.5 -66v-154z" />
<glyph unicode="&#xe2;" horiz-adv-x="1034" d="M98 276v158q0 145 86 218t240 73h270v23q0 65 -34.5 97t-92.5 32h-264q-48 0 -78 25t-30 77t30 77t78 25h264q158 0 251 -91t93 -240v-656q0 -47 -27.5 -78.5t-82.5 -31.5h-377q-154 0 -240 73t-86 219zM168 1263q1 24 20 42l248 243q37 33 68 33q34 0 67 -33l248 -243 q17 -17 18 -41t-12.5 -44t-32.5 -35t-43.5 -14.5t-43.5 19.5l-201 194l-201 -194q-19 -18 -43.5 -18.5t-44.5 13.5t-34 34t-13 44zM315 276q0 -40 27.5 -64t81.5 -24h270v332h-270q-54 0 -81.5 -24t-27.5 -66v-154z" />
<glyph unicode="&#xe3;" horiz-adv-x="1034" d="M98 276v158q0 145 86 218t240 73h270v23q0 65 -34.5 97t-92.5 32h-264q-48 0 -78 25t-30 77t30 77t78 25h264q158 0 251 -91t93 -240v-656q0 -47 -27.5 -78.5t-82.5 -31.5h-377q-154 0 -240 73t-86 219zM164 1243q0 109 51.5 178.5t146.5 69.5q33 0 69.5 -15t52 -25.5 t55.5 -39.5q2 -2 11.5 -9t12.5 -9t11.5 -7.5t12 -7.5t10.5 -6.5t12 -6t11 -3.5t11.5 -3t11.5 -1q45 0 45 72q0 32 23.5 54.5t56.5 22.5q32 0 55 -22.5t23 -54.5q0 -107 -52 -177.5t-145 -70.5q-76 0 -180 82q-65 51 -102 51q-22 0 -33.5 -21t-11.5 -51q0 -32 -24 -55 t-56 -23t-55 23t-23 55zM315 276q0 -40 27.5 -64t81.5 -24h270v332h-270q-54 0 -81.5 -24t-27.5 -66v-154z" />
<glyph unicode="&#xe4;" horiz-adv-x="1034" d="M98 276v158q0 145 86 218t240 73h270v23q0 65 -34.5 97t-92.5 32h-264q-48 0 -78 25t-30 77t30 77t78 25h264q158 0 251 -91t93 -240v-656q0 -47 -27.5 -78.5t-82.5 -31.5h-377q-154 0 -240 73t-86 219zM180 1323v25q0 129 127 129q66 0 97.5 -36t31.5 -93v-25 q0 -58 -31 -92.5t-98 -34.5q-127 0 -127 127zM315 276q0 -40 27.5 -64t81.5 -24h270v332h-270q-54 0 -81.5 -24t-27.5 -66v-154zM573 1323v25q0 129 127 129q66 0 97.5 -36t31.5 -93v-25q0 -58 -31 -92.5t-98 -34.5q-127 0 -127 127z" />
<glyph unicode="&#xe5;" horiz-adv-x="1034" d="M98 276v158q0 145 86 218t240 73h270v23q0 65 -34.5 97t-92.5 32h-264q-48 0 -78 25t-30 77t30 77t78 25h264q158 0 251 -91t93 -240v-656q0 -47 -27.5 -78.5t-82.5 -31.5h-377q-154 0 -240 73t-86 219zM305 1364q0 83 57 140t148 57t148 -57t57 -140q0 -81 -57.5 -138 t-147.5 -57t-147.5 57t-57.5 138zM315 276q0 -40 27.5 -64t81.5 -24h270v332h-270q-54 0 -81.5 -24t-27.5 -66v-154zM436 1364q0 -31 20.5 -50.5t53.5 -19.5q32 0 51 19.5t19 50.5t-19 50.5t-51 19.5q-33 0 -53.5 -19.5t-20.5 -50.5z" />
<glyph unicode="&#xe6;" horiz-adv-x="1630" d="M98 276v109q0 145 86 218t240 73h270v72q0 65 -34.5 97t-92.5 32h-264q-48 0 -78 25t-30 77t30 77t78 25h264q157 0 236 -98q88 119 284 119h64q195 0 294 -103.5t99 -285.5v-135q0 -52 -29 -79.5t-77 -27.5h-527v-70q0 -95 46.5 -154t136.5 -59h266q106 0 106 -102 t-106 -102h-266q-206 0 -291 135q-88 -135 -291 -135h-88q-154 0 -240 73t-86 219zM315 276q0 -40 27.5 -64t81.5 -24h88q90 0 136 58.5t46 154.5v70h-270q-54 0 -81.5 -24t-27.5 -66v-105zM911 676h416v37q0 184 -176 184h-64q-176 0 -176 -184v-37z" />
<glyph unicode="&#xe7;" horiz-adv-x="1015" d="M111 383v330q0 182 100 285.5t295 103.5h98q162 0 252 -73.5t90 -219.5q0 -51 -26 -81t-82 -30t-82.5 30.5t-26.5 80.5q0 38 -34.5 61t-90.5 23h-98q-178 0 -178 -180v-330q0 -97 46 -154t138 -57h92q56 0 90.5 23t34.5 61q0 50 26.5 80.5t82.5 30.5t82 -30t26 -81 q0 -146 -90 -219.5t-252 -73.5h-8v-6q0 -27 11.5 -48t25 -32t41.5 -29q112 -80 112 -182q0 -74 -61 -126t-164 -52q-89 0 -157 40t-68 91q0 31 20.5 51.5t55.5 20.5q27 0 73.5 -28t77.5 -28q27 0 43.5 13.5t16.5 34.5q0 20 -11 34t-41 35q-33 22 -55.5 42.5t-42.5 60 t-20 86.5q0 16 2 26q-167 18 -255.5 130.5t-88.5 285.5z" />
<glyph unicode="&#xe8;" horiz-adv-x="1050" d="M111 401v312q0 182 99 285.5t294 103.5h63q195 0 294.5 -103.5t99.5 -285.5v-170q0 -52 -29.5 -79.5t-77.5 -27.5h-526v-35q0 -96 46 -154.5t136 -58.5h266q107 0 107 -102t-107 -102h-266q-193 0 -296 115t-103 302zM291 1479q29 65 88 65q43 0 90 -35l254 -184 q57 -40 33 -94q-11 -27 -39 -36.5t-64 5.5l-305 137q-100 46 -57 142zM328 641h415v72q0 184 -176 184h-63q-176 0 -176 -184v-72z" />
<glyph unicode="&#xe9;" horiz-adv-x="1050" d="M111 401v312q0 182 99 285.5t294 103.5h63q195 0 294.5 -103.5t99.5 -285.5v-170q0 -52 -29.5 -79.5t-77.5 -27.5h-526v-35q0 -96 46 -154.5t136 -58.5h266q107 0 107 -102t-107 -102h-266q-193 0 -296 115t-103 302zM313 1231q-24 54 33 94l254 184q47 35 90 35 q59 0 88 -65q13 -28 14 -51t-9 -39.5t-24.5 -28.5t-37.5 -23l-305 -137q-39 -15 -64.5 -5.5t-38.5 36.5zM328 641h415v72q0 184 -176 184h-63q-176 0 -176 -184v-72z" />
<glyph unicode="&#xea;" horiz-adv-x="1050" d="M111 401v312q0 182 99 285.5t294 103.5h63q195 0 294.5 -103.5t99.5 -285.5v-170q0 -52 -29.5 -79.5t-77.5 -27.5h-526v-35q0 -96 46 -154.5t136 -58.5h266q107 0 107 -102t-107 -102h-266q-193 0 -296 115t-103 302zM199 1263q1 24 20 42l248 243q37 33 68 33 q34 0 67 -33l248 -243q17 -17 18 -41t-12.5 -44t-33 -35t-44 -14.5t-43.5 19.5l-200 194l-201 -194q-19 -18 -43.5 -18.5t-44.5 13.5t-34 34t-13 44zM328 641h415v72q0 184 -176 184h-63q-176 0 -176 -184v-72z" />
<glyph unicode="&#xeb;" horiz-adv-x="1050" d="M111 401v312q0 182 99 285.5t294 103.5h63q195 0 294.5 -103.5t99.5 -285.5v-170q0 -52 -29.5 -79.5t-77.5 -27.5h-526v-35q0 -96 46 -154.5t136 -58.5h266q107 0 107 -102t-107 -102h-266q-193 0 -296 115t-103 302zM211 1323v25q0 129 127 129q66 0 97.5 -36t31.5 -93 v-25q0 -58 -31 -92.5t-98 -34.5q-127 0 -127 127zM328 641h415v72q0 184 -176 184h-63q-176 0 -176 -184v-72zM604 1323v25q0 129 127 129q66 0 97.5 -36t31.5 -93v-25q0 -58 -31 -92.5t-98 -34.5q-127 0 -127 127z" />
<glyph unicode="&#xec;" horiz-adv-x="487" d="M-63 1479q29 65 88 65q43 0 90 -35l254 -184q56 -39 32 -94q-11 -27 -38.5 -36.5t-63.5 5.5l-305 137q-100 46 -57 142zM135 74v917q0 48 27 79.5t84 31.5q55 0 80.5 -31.5t25.5 -79.5v-917q0 -48 -26.5 -79.5t-83.5 -31.5q-55 0 -81 32t-26 79z" />
<glyph unicode="&#xed;" horiz-adv-x="487" d="M96 1231q-24 54 33 94l254 184q47 35 90 35q59 0 88 -65q13 -28 14 -51t-9 -39.5t-24.5 -28.5t-37.5 -23l-305 -137q-39 -15 -64.5 -5.5t-38.5 36.5zM135 74v917q0 48 27 79.5t84 31.5q55 0 80.5 -31.5t25.5 -79.5v-917q0 -48 -26.5 -79.5t-83.5 -31.5q-55 0 -81 32 t-26 79z" />
<glyph unicode="&#xee;" horiz-adv-x="487" d="M-90 1263q1 24 20 42l248 243q37 33 68 33q34 0 67 -33l248 -243q17 -17 18 -41t-12.5 -44t-33 -35t-44 -14.5t-43.5 19.5l-200 194l-201 -194q-19 -18 -43.5 -18.5t-44.5 13.5t-34 34t-13 44zM135 74v917q0 48 27 79.5t84 31.5q55 0 80.5 -31.5t25.5 -79.5v-917 q0 -48 -26.5 -79.5t-83.5 -31.5q-55 0 -81 32t-26 79z" />
<glyph unicode="&#xef;" horiz-adv-x="487" d="M-61 1323v25q0 120 118 120q62 0 91.5 -33t29.5 -87v-25q0 -55 -29 -87t-92 -32q-118 0 -118 119zM135 74v917q0 48 27 79.5t84 31.5q55 0 80.5 -31.5t25.5 -79.5v-917q0 -48 -26.5 -79.5t-83.5 -31.5q-55 0 -81 32t-26 79zM311 1323v25q0 120 119 120q62 0 91.5 -33 t29.5 -87v-25q0 -55 -29 -87t-92 -32q-119 0 -119 119z" />
<glyph unicode="&#xf0;" horiz-adv-x="1093" d="M111 373v176q0 185 100 297t293 112h55q121 0 195 -61q-7 71 -31.5 137.5t-54.5 106.5l-129 -80q-32 -21 -64 -21q-48 0 -76 43q-19 29 -17 55.5t16 47t38 35.5l90 57q-71 51 -88 61q-46 27 -61 68t14 92q28 49 88 49q44 0 80 -22q92 -54 162 -121l139 84q33 20 66 20 q48 0 75 -47q22 -41 10 -77.5t-50 -59.5l-109 -68q131 -198 131 -473v-411q0 -185 -100 -297.5t-293 -112.5h-86q-193 0 -293 112.5t-100 297.5zM328 373q0 -93 43 -147t133 -54h86q90 0 133 54t43 147v155q0 94 -52.5 158t-144.5 64h-65q-90 0 -133 -54t-43 -147v-176z" />
<glyph unicode="&#xf1;" horiz-adv-x="1099" d="M135 74v897q0 48 27 79t82 31h338q195 0 295 -102.5t100 -286.5v-618q0 -48 -26.5 -79.5t-82.5 -31.5q-57 0 -82.5 31.5t-25.5 79.5v618q0 180 -178 180h-230v-798q0 -48 -25.5 -79.5t-82.5 -31.5q-55 0 -82 32t-27 79zM188 1243q0 109 52 178.5t147 69.5q11 0 21.5 -1.5 t19 -3t19.5 -6t18 -7t18.5 -9t16 -9t16.5 -11t15.5 -11t16.5 -11.5t15 -11q59 -43 84 -50q11 -3 21 -3q45 0 45 72q0 32 23.5 54.5t56.5 22.5q32 0 54.5 -22.5t22.5 -54.5q0 -108 -51.5 -178t-144.5 -70q-76 0 -180 82q-65 51 -103 51q-22 0 -33.5 -21t-11.5 -51 q0 -32 -24 -55t-56 -23t-55 23t-23 55z" />
<glyph unicode="&#xf2;" horiz-adv-x="1093" d="M111 373v319q0 185 100 297.5t293 112.5h86q193 0 293 -112.5t100 -297.5v-319q0 -185 -100 -297.5t-293 -112.5h-86q-193 0 -293 112.5t-100 297.5zM297 1479q29 65 88 65q43 0 90 -35l254 -184q57 -40 33 -94q-11 -27 -39 -36.5t-64 5.5l-305 137q-100 46 -57 142z M328 373q0 -93 43 -147t133 -54h86q90 0 133 54t43 147v319q0 93 -43 147t-133 54h-86q-90 0 -133 -54t-43 -147v-319z" />
<glyph unicode="&#xf3;" horiz-adv-x="1093" d="M111 373v319q0 185 100 297.5t293 112.5h86q193 0 293 -112.5t100 -297.5v-319q0 -185 -100 -297.5t-293 -112.5h-86q-193 0 -293 112.5t-100 297.5zM328 373q0 -93 43 -147t133 -54h86q90 0 133 54t43 147v319q0 93 -43 147t-133 54h-86q-90 0 -133 -54t-43 -147v-319z M334 1231q-24 54 33 94l254 184q47 35 90 35q59 0 88 -65q13 -28 14 -51t-9.5 -39.5t-25 -28.5t-37.5 -23l-305 -137q-39 -15 -64 -5.5t-38 36.5z" />
<glyph unicode="&#xf4;" horiz-adv-x="1093" d="M111 373v319q0 185 100 297.5t293 112.5h86q193 0 293 -112.5t100 -297.5v-319q0 -185 -100 -297.5t-293 -112.5h-86q-193 0 -293 112.5t-100 297.5zM213 1263q1 24 20 42l248 243q37 33 68 33q34 0 67 -33l248 -243q17 -17 18 -41t-12.5 -44t-32.5 -35t-43.5 -14.5 t-43.5 19.5l-201 194l-201 -194q-19 -18 -43.5 -18.5t-44.5 13.5t-34 34t-13 44zM328 373q0 -93 43 -147t133 -54h86q90 0 133 54t43 147v319q0 93 -43 147t-133 54h-86q-90 0 -133 -54t-43 -147v-319z" />
<glyph unicode="&#xf5;" horiz-adv-x="1093" d="M111 373v319q0 185 100 297.5t293 112.5h86q193 0 293 -112.5t100 -297.5v-319q0 -185 -100 -297.5t-293 -112.5h-86q-193 0 -293 112.5t-100 297.5zM207 1243q0 109 52 178.5t147 69.5q11 0 21.5 -1.5t19 -3t19.5 -6t18 -7t18.5 -9t16 -9t16.5 -11t15.5 -11t16.5 -11.5 t15 -11t11.5 -9t12.5 -9t11.5 -7.5t12 -7.5t10.5 -6.5t12 -6t11 -3.5t11.5 -3t11.5 -1q45 0 45 72q0 32 23.5 54.5t56.5 22.5q32 0 55 -22.5t23 -54.5q0 -107 -52 -177.5t-145 -70.5q-76 0 -180 82q-65 51 -102 51q-22 0 -33.5 -21t-11.5 -51q0 -32 -24 -55t-56 -23t-55 23 t-23 55zM328 373q0 -93 43 -147t133 -54h86q90 0 133 54t43 147v319q0 93 -43 147t-133 54h-86q-90 0 -133 -54t-43 -147v-319z" />
<glyph unicode="&#xf6;" horiz-adv-x="1093" d="M111 373v319q0 185 100 297.5t293 112.5h86q193 0 293 -112.5t100 -297.5v-319q0 -185 -100 -297.5t-293 -112.5h-86q-193 0 -293 112.5t-100 297.5zM223 1323v25q0 129 127 129q66 0 97.5 -36t31.5 -93v-25q0 -58 -31 -92.5t-98 -34.5q-127 0 -127 127zM328 373 q0 -93 43 -147t133 -54h86q90 0 133 54t43 147v319q0 93 -43 147t-133 54h-86q-90 0 -133 -54t-43 -147v-319zM616 1323v25q0 129 127 129q66 0 97.5 -36t31.5 -93v-25q0 -58 -31 -92.5t-98 -34.5q-127 0 -127 127z" />
<glyph unicode="&#xf7;" d="M205 106v1221q0 51 27.5 79t78.5 28h819q51 0 79 -28t28 -79v-1221q0 -51 -28 -78.5t-79 -27.5h-819q-51 0 -78.5 27.5t-27.5 78.5zM317 196.5q2 -18.5 15.5 -31t30 -19.5t35 -1.5t30.5 23.5l293 444l291 -436q13 -20 33 -27t37 -0.5t30 20t14 33.5t-12 40l-323 475 l323 475q13 20 12 40t-14 33t-30 19.5t-37 -0.5t-33 -27l-291 -438l-293 447q-19 30 -53.5 24.5t-49.5 -32.5t1 -58l325 -483l-325 -484q-11 -18 -9 -36.5z" />
<glyph unicode="&#xf8;" horiz-adv-x="1093" d="M111 373v319q0 185 100 297.5t293 112.5h86q42 0 80 -6l41 108q10 31 36.5 45t65.5 0q71 -28 45 -100l-41 -107q166 -106 166 -350v-319q0 -185 -100 -297.5t-293 -112.5h-86q-53 0 -80 4l-41 -108q-10 -31 -36.5 -45t-65.5 0q-71 28 -45 100l40 106q-165 105 -165 353z M328 373q0 -99 24 -140q37 102 118.5 320.5t125.5 339.5h-92q-90 0 -133 -54t-43 -147v-319zM498 172h92q90 0 133 54t43 147v319q0 94 -25 137q-41 -112 -121.5 -328.5t-121.5 -328.5z" />
<glyph unicode="&#xf9;" horiz-adv-x="1099" d="M123 373v618q0 48 26 79.5t82 31.5q57 0 83 -31.5t26 -79.5v-618q0 -180 178 -180h230v798q0 48 25.5 79.5t82.5 31.5q55 0 82 -32t27 -79v-897q0 -48 -27 -79t-82 -31h-338q-195 0 -295 102.5t-100 286.5zM281 1479q29 65 88 65q43 0 90 -35l254 -184q56 -39 32 -94 q-11 -27 -38.5 -36.5t-63.5 5.5l-305 137q-100 46 -57 142z" />
<glyph unicode="&#xfa;" horiz-adv-x="1099" d="M123 373v618q0 48 26 79.5t82 31.5q57 0 83 -31.5t26 -79.5v-618q0 -180 178 -180h230v798q0 48 25.5 79.5t82.5 31.5q55 0 82 -32t27 -79v-897q0 -48 -27 -79t-82 -31h-338q-195 0 -295 102.5t-100 286.5zM358 1231q-24 54 33 94l254 184q47 35 90 35q59 0 88 -65 q13 -28 14 -51t-9 -39.5t-24.5 -28.5t-37.5 -23l-305 -137q-39 -15 -64.5 -5.5t-38.5 36.5z" />
<glyph unicode="&#xfb;" horiz-adv-x="1099" d="M123 373v618q0 48 26 79.5t82 31.5q57 0 83 -31.5t26 -79.5v-618q0 -180 178 -180h230v798q0 48 25.5 79.5t82.5 31.5q55 0 82 -32t27 -79v-897q0 -48 -27 -79t-82 -31h-338q-195 0 -295 102.5t-100 286.5zM213 1263q1 24 20 42l248 243q37 33 68 33q34 0 67 -33 l248 -243q17 -17 18 -41t-12.5 -44t-32.5 -35t-43.5 -14.5t-43.5 19.5l-201 194l-201 -194q-19 -18 -43.5 -18.5t-44.5 13.5t-34 34t-13 44z" />
<glyph unicode="&#xfc;" horiz-adv-x="1099" d="M123 373v618q0 48 26 79.5t82 31.5q57 0 83 -31.5t26 -79.5v-618q0 -180 178 -180h230v798q0 48 25.5 79.5t82.5 31.5q55 0 82 -32t27 -79v-897q0 -48 -27 -79t-82 -31h-338q-195 0 -295 102.5t-100 286.5zM227 1323v25q0 129 127 129q66 0 97.5 -36t31.5 -93v-25 q0 -58 -31 -92.5t-98 -34.5q-127 0 -127 127zM621 1323v25q0 129 127 129q66 0 97.5 -36t31.5 -93v-25q0 -58 -31 -92.5t-98 -34.5q-127 0 -127 127z" />
<glyph unicode="&#xfd;" horiz-adv-x="1099" d="M123 373v618q0 48 26 79.5t82 31.5q57 0 83 -31.5t26 -79.5v-618q0 -180 178 -180h230v798q0 48 25.5 79.5t82.5 31.5q55 0 82 -32t27 -79v-1104q0 -185 -104.5 -300t-297.5 -115h-229q-46 0 -76.5 25t-30.5 79q0 52 31 78.5t76 26.5h229q92 0 138.5 55.5t46.5 150.5v97 h-230q-195 0 -295 102.5t-100 286.5zM383 1231q-24 54 33 94l254 184q47 35 90 35q59 0 88 -65q13 -28 14 -51t-9 -39.5t-24.5 -28.5t-37.5 -23l-306 -137q-39 -15 -64 -5.5t-38 36.5z" />
<glyph unicode="&#xfe;" horiz-adv-x="1087" d="M135 -418v1860q0 48 27 79t84 31q55 0 80.5 -31.5t25.5 -78.5v-361h230q195 0 295 -102.5t100 -286.5v-291q0 -187 -104.5 -302t-297.5 -115h-223v-402q0 -48 -26.5 -79t-81.5 -31t-82 31t-27 79zM352 193h223q92 0 138.5 56.5t46.5 151.5v291q0 180 -178 180h-230v-679z " />
<glyph unicode="&#xff;" horiz-adv-x="1099" d="M123 373v618q0 48 26 79.5t82 31.5q57 0 83 -31.5t26 -79.5v-618q0 -180 178 -180h230v798q0 48 25.5 79.5t82.5 31.5q55 0 82 -32t27 -79v-1104q0 -185 -104.5 -300t-297.5 -115h-229q-46 0 -76.5 25t-30.5 79q0 52 31 78.5t76 26.5h229q92 0 138.5 55.5t46.5 150.5v97 h-230q-195 0 -295 102.5t-100 286.5zM227 1323v25q0 129 127 129q66 0 97.5 -36t31.5 -93v-25q0 -58 -31 -92.5t-98 -34.5q-127 0 -127 127zM621 1323v25q0 129 127 129q66 0 97.5 -36t31.5 -93v-25q0 -58 -31 -92.5t-98 -34.5q-127 0 -127 127z" />
<glyph unicode="&#x152;" horiz-adv-x="1675" d="M119 410v614q0 184 105.5 305t299.5 121h987q44 0 75.5 -29t31.5 -80q0 -55 -30.5 -81.5t-76.5 -26.5h-491v-387h393q44 0 75.5 -29t31.5 -80q0 -55 -30.5 -81.5t-76.5 -26.5h-393v-428h491q44 0 75.5 -29t31.5 -80q0 -55 -30.5 -81.5t-76.5 -26.5h-987 q-194 0 -299.5 121t-105.5 305zM344 410q0 -94 44 -151.5t136 -57.5h271v1032h-271q-92 0 -136 -57.5t-44 -151.5v-614z" />
<glyph unicode="&#x153;" horiz-adv-x="1705" d="M111 373v319q0 185 100 297.5t293 112.5h86q187 0 280 -125q81 125 289 125h64q195 0 294 -103.5t99 -285.5v-170q0 -52 -29.5 -79.5t-77.5 -27.5h-526v-35q0 -96 46 -154.5t136 -58.5h267q106 0 106 -102t-106 -102h-267q-193 0 -282 122q-84 -143 -293 -143h-86 q-193 0 -293 112.5t-100 297.5zM328 373q0 -93 43 -147t133 -54h86q90 0 133 54t43 147v319q0 93 -43 147t-133 54h-86q-90 0 -133 -54t-43 -147v-319zM983 641h416v72q0 184 -176 184h-64q-176 0 -176 -184v-72z" />
<glyph unicode="&#x178;" horiz-adv-x="995" d="M5.5 1384q6.5 42 51.5 70q52 25 89.5 10t60.5 -55l231 -420q31 -53 60 -129q31 81 59 129l231 420q23 40 60.5 55t89.5 -10q45 -28 52 -70t-17 -79l-363 -658v-573q0 -47 -28 -79t-84 -32t-84.5 32t-28.5 79v573l-362 658q-24 37 -17.5 79zM174 1673v25q0 129 127 129 q66 0 97.5 -36t31.5 -93v-25q0 -58 -31 -92.5t-98 -34.5q-127 0 -127 127zM567 1673v25q0 129 127 129q66 0 97.5 -36t31.5 -93v-25q0 -58 -31 -92.5t-98 -34.5q-127 0 -127 127z" />
<glyph unicode="&#x2c6;" horiz-adv-x="647" d="M-6 1341q0 51 31 80t75 29h289q44 0 75.5 -29t31.5 -80v-1267q0 -46 -29.5 -78.5t-83.5 -32.5q-57 0 -85 32t-28 79v1159h-170q-45 0 -75.5 26.5t-30.5 81.5zM229 1718q0 68 31.5 105t108.5 37q139 0 139 -142q0 -137 -139 -137q-77 0 -108.5 35t-31.5 102z" />
<glyph unicode="&#x2dc;" horiz-adv-x="819" d="M70 1243q0 109 51.5 178.5t146.5 69.5q11 0 21.5 -1.5t19 -3t19.5 -6t18 -7t18.5 -9t16 -9t16.5 -11t15.5 -11t16.5 -11.5t15 -11q59 -43 84 -50q11 -3 21 -3q45 0 45 72q0 32 23.5 54.5t56.5 22.5q32 0 55 -22.5t23 -54.5q0 -107 -52 -177.5t-145 -70.5q-76 0 -180 82 q-65 51 -103 51q-22 0 -33.5 -21t-11.5 -51q0 -32 -24 -55t-56 -23t-54.5 23t-22.5 55z" />
<glyph unicode="&#x2000;" horiz-adv-x="986" />
<glyph unicode="&#x2001;" horiz-adv-x="1972" />
<glyph unicode="&#x2002;" horiz-adv-x="986" />
<glyph unicode="&#x2003;" horiz-adv-x="1972" />
<glyph unicode="&#x2004;" horiz-adv-x="657" />
<glyph unicode="&#x2005;" horiz-adv-x="493" />
<glyph unicode="&#x2006;" horiz-adv-x="328" />
<glyph unicode="&#x2007;" horiz-adv-x="328" />
<glyph unicode="&#x2008;" horiz-adv-x="246" />
<glyph unicode="&#x2009;" horiz-adv-x="394" />
<glyph unicode="&#x200a;" horiz-adv-x="109" />
<glyph unicode="&#x2010;" horiz-adv-x="710" d="M55 760q0 53 30.5 78.5t76.5 25.5h387q46 0 76 -25.5t30 -78.5t-30 -79t-76 -26h-387q-46 0 -76.5 26t-30.5 79z" />
<glyph unicode="&#x2011;" horiz-adv-x="710" d="M55 760q0 53 30.5 78.5t76.5 25.5h387q46 0 76 -25.5t30 -78.5t-30 -79t-76 -26h-387q-46 0 -76.5 26t-30.5 79z" />
<glyph unicode="&#x2012;" horiz-adv-x="710" d="M55 760q0 53 30.5 78.5t76.5 25.5h387q46 0 76 -25.5t30 -78.5t-30 -79t-76 -26h-387q-46 0 -76.5 26t-30.5 79z" />
<glyph unicode="&#x2013;" horiz-adv-x="1095" d="M55 760q0 104 107 104h772q106 0 106 -104q0 -105 -106 -105h-772q-49 0 -78 25.5t-29 79.5z" />
<glyph unicode="&#x2014;" horiz-adv-x="1464" d="M55 760q0 104 107 104h1141q106 0 106 -104q0 -105 -106 -105h-1141q-49 0 -78 25.5t-29 79.5z" />
<glyph unicode="&#x2018;" horiz-adv-x="327" d="M27 1151l61 319q15 82 90 82q88 0 88 -98v-346q0 -133 -123 -133q-151 0 -116 176z" />
<glyph unicode="&#x2019;" horiz-adv-x="327" d="M61 1073v346q0 133 123 133q152 0 117 -176l-61 -319q-15 -82 -90 -82q-39 0 -64 22.5t-25 75.5z" />
<glyph unicode="&#x201a;" horiz-adv-x="339" d="M61 -156v346q0 134 123 134q152 0 117 -177l-61 -319q-15 -82 -90 -82q-39 0 -64 22.5t-25 75.5z" />
<glyph unicode="&#x201c;" horiz-adv-x="655" d="M27 1151l61 319q15 82 90 82q88 0 88 -98v-346q0 -133 -123 -133q-151 0 -116 176zM354 1151l62 319q15 82 90 82q88 0 88 -98v-346q0 -133 -123 -133q-152 0 -117 176z" />
<glyph unicode="&#x201d;" horiz-adv-x="655" d="M61 1073v346q0 133 123 133q152 0 117 -176l-61 -319q-15 -82 -90 -82q-39 0 -64 22.5t-25 75.5zM389 1073v346q0 133 123 133q152 0 117 -176l-62 -319q-15 -82 -90 -82q-88 0 -88 98z" />
<glyph unicode="&#x201e;" horiz-adv-x="667" d="M61 -156v346q0 134 123 134q152 0 117 -177l-61 -319q-15 -82 -90 -82q-39 0 -64 22.5t-25 75.5zM389 -156v346q0 134 123 134q152 0 117 -177l-62 -319q-15 -82 -90 -82q-88 0 -88 98z" />
<glyph unicode="&#x2022;" horiz-adv-x="555" d="M76 737v37q0 203 200 203q104 0 153.5 -56t49.5 -147v-37q0 -92 -49 -146t-154 -54q-200 0 -200 200z" />
<glyph unicode="&#x2026;" horiz-adv-x="1126" d="M57 90v21q0 56 30.5 91.5t96.5 35.5t96.5 -35.5t30.5 -91.5v-21q0 -56 -30.5 -91.5t-96.5 -35.5t-96.5 35.5t-30.5 91.5zM436 90v21q0 56 30.5 91.5t96.5 35.5t96.5 -35.5t30.5 -91.5v-21q0 -56 -30.5 -91.5t-96.5 -35.5t-96.5 35.5t-30.5 91.5zM815 90v21 q0 56 30.5 91.5t96.5 35.5t96.5 -35.5t30.5 -91.5v-21q0 -56 -30.5 -91.5t-96.5 -35.5t-96.5 35.5t-30.5 91.5z" />
<glyph unicode="&#x202f;" horiz-adv-x="394" />
<glyph unicode="&#x2039;" horiz-adv-x="651" d="M66 616q0 40 30 70l326 322q69 66 133 2q29 -33 29 -66q0 -36 -31 -67l-262 -261l262 -260q31 -31 31 -67q0 -37 -29 -66q-64 -64 -133 2l-326 322q-30 30 -30 69z" />
<glyph unicode="&#x203a;" horiz-adv-x="651" d="M68 289q0 37 30 67l262 260l-262 261q-30 30 -30 67q0 38 28 66q63 63 131 -2l328 -322q31 -31 31 -70q0 -38 -31 -69l-328 -322q-68 -65 -131 -2q-28 24 -28 66z" />
<glyph unicode="&#x205f;" horiz-adv-x="493" />
<glyph unicode="&#x20ac;" horiz-adv-x="1247" d="M14 559q0 44 24.5 65t63.5 21h129v143h-129q-39 0 -63.5 21t-24.5 65t24.5 65.5t63.5 21.5h129v83q0 184 106 305t300 121h188q353 0 353 -321q0 -47 -28.5 -79t-86.5 -32q-54 0 -81 30.5t-30 78.5q-9 106 -127 106h-188q-92 0 -136 -57.5t-44 -151.5v-83h276 q39 0 63.5 -21.5t24.5 -65.5t-24.5 -65t-63.5 -21h-276v-143h276q39 0 63.5 -21t24.5 -65t-24.5 -65t-63.5 -21h-276v-84q0 -94 44 -151.5t136 -57.5h188q119 0 127 107q11 108 111 108q58 0 86.5 -31.5t28.5 -78.5q0 -164 -91.5 -243t-261.5 -79h-188q-194 0 -300 121 t-106 305v84h-129q-39 0 -63.5 21t-24.5 65z" />
<glyph unicode="&#x2122;" horiz-adv-x="1048" d="M23 1395q0 45 45 45h321q18 0 31.5 -11t13.5 -34t-13.5 -34t-31.5 -11h-115v-449q0 -47 -47 -47t-47 47v449h-112q-45 0 -45 45zM473 901v496q0 43 47 43q19 0 29.5 -7t19.5 -26l123 -244q18 -37 25 -59q8 28 24 59l121 244q16 33 51 33q48 0 48 -43v-496q0 -47 -48 -47 q-47 0 -47 47v252q0 34 4 70h-2l-112 -226q-14 -24 -39 -24q-27 0 -41 24l-111 224h-2q4 -36 4 -70v-250q0 -47 -47 -47t-47 47z" />
<glyph unicode="&#xe000;" horiz-adv-x="1105" d="M0 0v1106h1106v-1106h-1106z" />
<glyph unicode="&#xfb01;" horiz-adv-x="1142" d="M-27 977q0 54 30.5 79t76.5 25h117v15q0 213 103.5 334.5t299.5 121.5h205q106 0 106 -104q0 -56 -30 -80.5t-76 -24.5h-205q-186 0 -186 -247v-15h487q55 0 81 -31.5t26 -78.5v-897q0 -48 -27 -79.5t-84 -31.5q-55 0 -80.5 31.5t-25.5 79.5v798h-377v-798 q0 -48 -26 -79.5t-83 -31.5t-82.5 31.5t-25.5 79.5v798h-117q-46 0 -76.5 25.5t-30.5 79.5z" />
<glyph unicode="&#xfb02;" horiz-adv-x="1224" d="M-27 977q0 54 30.5 79t76.5 25h117v15q0 213 103.5 334.5t299.5 121.5h383q107 0 107 -104v-1374q0 -48 -27 -79.5t-84 -31.5q-55 0 -81 32t-26 79v1269h-272q-186 0 -186 -247v-15h223q46 0 76 -25t30 -79q0 -55 -30 -80t-76 -25h-223v-798q0 -48 -26 -79.5t-83 -31.5 t-82.5 31.5t-25.5 79.5v798h-117q-46 0 -76.5 25.5t-30.5 79.5z" />
</font>
</defs>
</svg>
